<svg width="65" height="65" viewBox="0 0 65 65" fill="none" xmlns="http://www.w3.org/2000/svg">
<path d="M32.4999 1.94214C49.3844 1.94214 63.0577 15.6284 63.0577 32.4999C63.0577 49.3714 49.3714 63.0577 32.4999 63.0577C15.6284 63.0577 1.94214 49.3844 1.94214 32.4999C1.94214 18.2439 11.7051 6.26684 24.9252 2.88736" stroke="#10403B" stroke-width="3" stroke-miterlimit="10" stroke-linecap="round"/>
<path d="M15.6672 7.71704C17.5577 8.76585 19.8754 8.27381 22.0248 7.98895C24.1742 7.70409 26.725 7.87242 27.9421 9.65927C28.965 11.1872 28.5766 13.2718 29.3405 14.9421C29.8326 16.0039 30.7778 16.8714 30.985 18.0238C31.2569 19.5129 30.0915 21.0019 28.6543 21.4939C27.217 21.986 25.6244 21.6882 24.2131 21.1314C23.7081 20.9372 23.2031 20.7041 22.6722 20.6911C20.9631 20.6523 20.0049 22.8535 20.4581 24.4979C20.6782 25.3007 21.1314 26.0776 21.1184 26.9063C21.0925 28.6802 19.1891 29.7031 18.0627 31.0756C16.5477 32.9402 16.5089 35.7499 17.6613 37.8475C18.8137 39.9451 20.9889 41.3694 23.3196 41.978C25.6503 42.5866 28.0975 42.4571 30.467 42.0039C31.4511 41.8226 32.4611 41.5766 33.4581 41.7449C35.737 42.1204 37.1872 44.5806 37.2778 46.8854C37.3684 49.1902 36.4232 51.4043 35.5816 53.5537C34.7399 55.7031 33.963 58.0208 34.3903 60.2868" stroke="#10403B" stroke-width="3" stroke-miterlimit="10" stroke-linecap="round"/>
<path d="M3.26294 26.9841C5.11453 28.4861 6.4223 30.6485 6.88844 32.9791C7.1733 34.3905 7.16035 35.8795 7.74302 37.2003C8.77888 39.5568 11.3815 40.7481 13.7121 41.8357C16.0428 42.9234 18.5807 44.4124 19.1892 46.9114C19.5 48.2062 19.241 49.5658 19.4741 50.8736C20.1215 54.4991 24.2779 56.7132 24.8994 60.3517" stroke="#10403B" stroke-width="3" stroke-miterlimit="10" stroke-linecap="round"/>
<path d="M43.286 28.2011C42.4573 28.8356 41.7322 29.5996 41.1495 30.4671C40.787 31.0239 40.4633 31.6454 40.4762 32.3057C40.4892 32.9272 40.787 33.497 41.0718 34.0537C41.7969 35.5298 42.3796 37.0707 42.8069 38.6503C43.1565 39.9322 43.4025 41.2529 43.3119 42.5866C43.2342 43.739 42.9105 44.8655 42.7162 46.0049C42.4961 47.3386 42.4573 48.7111 42.6256 50.0577C42.7421 51.0288 43.0788 52.1424 43.9981 52.492C44.5937 52.725 45.28 52.5826 45.8627 52.3107C48.2322 51.2101 49.3846 50.3685 50.2521 48.6075C51.1067 46.8725 51.0808 44.8525 51.4692 42.9491C51.8447 41.0458 52.6475 39.246 53.1654 37.3814C53.6834 35.5169 53.9294 33.4711 53.2043 31.6583C52.6216 30.2081 51.4692 29.0557 50.1615 28.2011C49.3716 27.6832 48.5041 27.2689 47.5718 27.1135C45.7591 26.8157 45.1376 26.8286 43.3119 28.1752L43.286 28.2011Z" stroke="#FAAA42" stroke-width="2" stroke-miterlimit="10" stroke-linecap="round"/>
<path d="M41.6026 22.2969C42.4184 23.6047 42.7291 24.0967 42.2241 25.5599C41.8875 26.5439 41.0588 27.0878 40.1524 27.5927C39.4921 27.9682 38.6893 28.0718 37.9901 27.774C36.9413 27.3079 36.7859 26.3238 36.6952 25.3916C36.5528 24.0579 36.501 22.6206 37.1743 21.4553C37.8476 20.29 39.4921 19.7332 40.6444 21.0021L41.5897 22.3099L41.6026 22.2969Z" fill="#FAAA42"/>
<path d="M44.6585 24.8994C45.867 24.8994 46.8467 23.4501 46.8467 21.6623C46.8467 19.8746 45.867 18.4253 44.6585 18.4253C43.4499 18.4253 42.4702 19.8746 42.4702 21.6623C42.4702 23.4501 43.4499 24.8994 44.6585 24.8994Z" fill="#FAAA42"/>
<path d="M50.8249 22.9176C51.1229 21.4749 50.6151 20.1506 49.6906 19.9597C48.7662 19.7688 47.7753 20.7835 47.4773 22.2262C47.1793 23.6689 47.6871 24.9932 48.6116 25.1841C49.536 25.375 50.527 24.3603 50.8249 22.9176Z" fill="#FAAA42"/>
<path d="M54.3107 24.6294C54.7622 23.493 54.5411 22.3384 53.8167 22.0506C53.0923 21.7628 52.139 22.4507 51.6875 23.5871C51.2359 24.7235 51.4571 25.8781 52.1815 26.1659C52.9059 26.4538 53.8591 25.7658 54.3107 24.6294Z" fill="#FAAA42"/>
<path d="M55.9752 27.9035C55.017 30.027 52.8935 29.0429 53.8905 26.9453C54.8487 24.8218 56.9722 25.8059 55.9752 27.9035Z" fill="#FAAA42"/>
</svg>
