<svg width="36" height="51" viewBox="0 0 36 51" fill="none" xmlns="http://www.w3.org/2000/svg">
<path d="M13.4701 2H30.0639C32.24 2 34 3.73347 34 5.87682V45.1232C34 47.2665 32.24 49 30.0639 49H5.93606C3.75996 49 2 47.2665 2 45.1232V5.88536C2 3.74201 3.75996 2.00854 5.93606 2.00854H8.72772" stroke="#10403B" stroke-width="3" stroke-miterlimit="10" stroke-linecap="round"/>
<path d="M18.0045 44.2522C19.0004 44.2522 19.8078 43.4569 19.8078 42.476C19.8078 41.495 19.0004 40.6998 18.0045 40.6998C17.0085 40.6998 16.2012 41.495 16.2012 42.476C16.2012 43.4569 17.0085 44.2522 18.0045 44.2522Z" fill="#FAAA42"/>
<path d="M26.882 6.34644H9.11772C7.55199 6.34644 6.28271 7.5966 6.28271 9.13877V35.8324C6.28271 37.3746 7.55199 38.6248 9.11772 38.6248H26.882C28.4477 38.6248 29.717 37.3746 29.717 35.8324V9.13877C29.717 7.5966 28.4477 6.34644 26.882 6.34644Z" stroke="#10403B" stroke-width="2" stroke-miterlimit="10" stroke-linecap="round"/>
</svg>
