<svg width="61" height="61" viewBox="0 0 61 61" fill="none" xmlns="http://www.w3.org/2000/svg">
<path d="M30.4996 1.82269C46.345 1.82269 59.1768 14.6667 59.1768 30.5C59.1768 46.3332 46.3328 59.1773 30.4996 59.1773C14.6663 59.1773 1.82227 46.3454 1.82227 30.5C1.82227 17.1213 10.9844 5.88126 23.391 2.70974" stroke="#10403B" stroke-width="3" stroke-miterlimit="10" stroke-linecap="round"/>
<path d="M14.7031 7.24225C16.4772 8.22651 18.6523 7.76476 20.6695 7.49743C22.6866 7.2301 25.0804 7.38807 26.2226 9.06496C27.1826 10.4988 26.8181 12.4552 27.535 14.0227C27.9967 15.0191 28.8838 15.8333 29.0782 16.9148C29.3334 18.3122 28.2398 19.7096 26.891 20.1713C25.5422 20.6331 24.0475 20.3536 22.723 19.8311C22.2491 19.6488 21.7752 19.4301 21.277 19.4179C19.673 19.3815 18.7738 21.4472 19.1991 22.9905C19.4057 23.7438 19.831 24.4729 19.8189 25.2506C19.7946 26.9154 18.0083 27.8753 16.9511 29.1634C15.5294 30.9132 15.493 33.55 16.5744 35.5185C17.6559 37.4871 19.6973 38.8237 21.8846 39.3948C24.0718 39.966 26.3685 39.8444 28.5922 39.4191C29.5157 39.249 30.4635 39.0181 31.3991 39.1761C33.5378 39.5285 34.8987 41.8373 34.9838 44.0002C35.0689 46.1632 34.1818 48.2411 33.392 50.2582C32.6021 52.2753 31.873 54.4504 32.274 56.5769" stroke="#10403B" stroke-width="3" stroke-miterlimit="10" stroke-linecap="round"/>
<path d="M3.0625 25.3235C4.80015 26.733 6.02744 28.7623 6.46489 30.9496C6.73222 32.2741 6.72007 33.6715 7.26688 34.9109C8.23899 37.1225 10.6814 38.2404 12.8687 39.2611C15.0559 40.2819 17.4376 41.6793 18.0087 44.0245C18.3003 45.2396 18.0573 46.5155 18.276 47.7428C18.8836 51.1452 22.7842 53.2231 23.3675 56.6376" stroke="#10403B" stroke-width="3" stroke-miterlimit="10" stroke-linecap="round"/>
<path d="M40.6226 26.4657C39.8449 27.0612 39.1644 27.7781 38.6176 28.5922C38.2773 29.1147 37.9736 29.698 37.9857 30.3177C37.9979 30.901 38.2773 31.4357 38.5447 31.9582C39.2251 33.3434 39.772 34.7894 40.173 36.2719C40.501 37.4749 40.7319 38.7143 40.6469 39.9659C40.574 41.0474 40.2702 42.1046 40.0879 43.1739C39.8813 44.4255 39.8449 45.7135 40.0028 46.9773C40.1122 47.8886 40.4281 48.9337 41.2909 49.2618C41.8498 49.4805 42.4939 49.3468 43.0407 49.0916C45.2644 48.0588 46.3459 47.2689 47.16 45.6163C47.962 43.9881 47.9377 42.0924 48.3022 40.3062C48.6546 38.5199 49.408 36.8309 49.8941 35.0811C50.3801 33.3313 50.611 31.4114 49.9305 29.7102C49.3837 28.3492 48.3022 27.2677 47.0749 26.4657C46.3337 25.9797 45.5196 25.5908 44.6447 25.445C42.9435 25.1655 42.3602 25.1777 40.6469 26.4414L40.6226 26.4657Z" stroke="#FAAA42" stroke-width="2" stroke-miterlimit="10" stroke-linecap="round"/>
<path d="M39.0425 20.9247C39.808 22.152 40.0996 22.6137 39.6257 23.9868C39.3098 24.9103 38.5321 25.4207 37.6815 25.8946C37.0618 26.247 36.3084 26.3442 35.6522 26.0647C34.668 25.6273 34.5221 24.7038 34.4371 23.8289C34.3034 22.5773 34.2548 21.2285 34.8867 20.1349C35.5186 19.0412 37.0618 18.5187 38.1433 19.7096L39.0303 20.9368L39.0425 20.9247Z" fill="#FAAA42"/>
<path d="M41.91 23.3671C43.0442 23.3671 43.9636 22.007 43.9636 20.3293C43.9636 18.6515 43.0442 17.2914 41.91 17.2914C40.7759 17.2914 39.8564 18.6515 39.8564 20.3293C39.8564 22.007 40.7759 23.3671 41.91 23.3671Z" fill="#FAAA42"/>
<path d="M47.6978 21.5074C47.9774 20.1535 47.5008 18.9107 46.6333 18.7316C45.7657 18.5524 44.8358 19.5047 44.5561 20.8586C44.2765 22.2124 44.7531 23.4553 45.6206 23.6344C46.4882 23.8136 47.4182 22.8613 47.6978 21.5074Z" fill="#FAAA42"/>
<path d="M50.9683 23.1138C51.3921 22.0473 51.1845 20.9638 50.5047 20.6937C49.8249 20.4235 48.9303 21.0691 48.5065 22.1356C48.0828 23.2021 48.2903 24.2856 48.9702 24.5557C49.65 24.8259 50.5446 24.1803 50.9683 23.1138Z" fill="#FAAA42"/>
<path d="M52.5306 26.1863C51.6314 28.1791 49.6385 27.2556 50.5742 25.2871C51.4734 23.2942 53.4662 24.2177 52.5306 26.1863Z" fill="#FAAA42"/>
</svg>
