<svg width="65" height="65" viewBox="0 0 65 65" fill="none" xmlns="http://www.w3.org/2000/svg">
<path d="M27.0806 4.58008H46.2206C48.7306 4.58008 50.7606 6.61008 50.7606 9.12008V55.0801C50.7606 57.5901 48.7306 59.6201 46.2206 59.6201H18.3906C15.8806 59.6201 13.8506 57.5901 13.8506 55.0801V9.12008C13.8506 6.61008 15.8806 4.58008 18.3906 4.58008H21.6106" stroke="#10403B" stroke-width="3" stroke-miterlimit="10" stroke-linecap="round"/>
<path d="M32.3007 54.0501C33.4495 54.0501 34.3807 53.1189 34.3807 51.9701C34.3807 50.8214 33.4495 49.8901 32.3007 49.8901C31.152 49.8901 30.2207 50.8214 30.2207 51.9701C30.2207 53.1189 31.152 54.0501 32.3007 54.0501Z" fill="#FAAA42"/>
<path d="M42.551 9.66992H22.061C20.255 9.66992 18.791 11.134 18.791 12.9399V44.1999C18.791 46.0059 20.255 47.4699 22.061 47.4699H42.551C44.357 47.4699 45.821 46.0059 45.821 44.1999V12.9399C45.821 11.134 44.357 9.66992 42.551 9.66992Z" stroke="#10403B" stroke-width="2" stroke-miterlimit="10" stroke-linecap="round"/>
<path d="M43.8 32.9299C43.72 32.1499 43.49 31.4099 43.13 30.7599C42.72 30.0199 39.34 24.2499 38.42 22.6899C38.32 22.5099 38.07 22.5099 37.96 22.6899C37.04 24.2399 33.69 29.8999 33.41 30.4899C33.08 31.1699 32.73 31.8499 32.62 32.6399C32.62 32.6399 32.54 33.2599 32.54 33.4799C32.54 36.6099 35.08 39.1399 38.2 39.1399C41.32 39.1399 43.86 36.5999 43.86 33.4799C43.86 33.3399 43.81 32.9399 43.81 32.9399L43.8 32.9299ZM41.47 29.6799L38.69 33.5099C38.69 33.5099 38.64 33.6099 38.64 33.6699V37.8299C38.64 38.0799 38.44 38.2899 38.18 38.2899C37.92 38.2899 37.72 38.0899 37.72 37.8299V35.4799C37.72 35.4199 37.7 35.3599 37.66 35.3099L34.91 31.9199C34.75 31.7199 34.78 31.4399 34.98 31.2799C35.18 31.1199 35.46 31.1499 35.62 31.3499L37.24 33.3499C37.4 33.5499 37.72 33.4299 37.72 33.1799V25.0099C37.72 24.7599 37.92 24.5499 38.18 24.5499C38.44 24.5499 38.64 24.7499 38.64 25.0099V31.1999C38.64 31.4599 38.97 31.5699 39.13 31.3599L40.73 29.1499C40.88 28.9499 41.16 28.8999 41.37 29.0499C41.57 29.1999 41.62 29.4799 41.47 29.6899V29.6799Z" fill="#10403B"/>
<path d="M23.7307 32.0099C21.7607 32.0099 20.8707 28.7099 20.7707 28.3399C20.7007 28.0699 20.8707 27.7899 21.1407 27.7199C21.4107 27.6499 21.6907 27.8199 21.7607 28.0899C22.0007 29.0399 22.8007 30.9899 23.7307 30.9899C24.0507 30.9899 24.5607 30.3999 24.9407 28.7199C25.1007 28.0299 25.2607 27.1899 25.3407 26.7399C25.3907 26.4599 25.4407 26.1799 25.5107 25.9099C26.5407 21.7699 28.6307 20.8999 30.2007 20.8999C32.8307 20.8999 34.9707 25.3199 34.9707 28.1999C34.9707 28.4799 34.7407 28.7099 34.4607 28.7099C34.1807 28.7099 33.9507 28.4799 33.9507 28.1999C33.9507 25.6099 32.0107 21.9199 30.2107 21.9199C28.0207 21.9199 26.9907 24.2199 26.5107 26.1499C26.4507 26.3999 26.4007 26.6599 26.3507 26.9099C26.2707 27.3599 26.1107 28.2299 25.9407 28.9299C25.4707 30.9599 24.7307 31.9899 23.7307 31.9899V32.0099Z" fill="#10403B"/>
</svg>
