<svg width="93" height="93" viewBox="0 0 93 93" fill="none" xmlns="http://www.w3.org/2000/svg">
<path d="M46.3843 6.54761L29.8992 7.01116C28.3927 7.05462 27.0165 7.67751 26.017 8.77845C25.0174 9.87938 24.5249 11.3135 24.6263 12.8056C24.8291 15.8621 27.4801 18.2813 30.5511 18.1943L36.5628 18.0205L45.5296 26.7121C46.2249 27.4509 47.21 27.871 48.224 27.871H48.3109L58.2773 26.5383V30.0149C58.2917 30.913 58.6539 31.7532 59.2913 32.3906C59.9287 33.028 60.7688 33.3612 61.667 33.3612H65.4044C67.2586 33.3322 68.7506 31.8256 68.7506 29.9859V27.5523C68.7506 26.8859 68.1857 26.3355 67.5193 26.3355C66.853 26.3355 66.3025 26.8859 66.3025 27.5523V29.9859C66.3025 30.4929 65.8824 30.913 65.3754 30.913H61.638C61.3917 30.9275 61.16 30.8406 60.9861 30.6523C60.8123 30.4784 60.7109 30.2467 60.7109 30.0004L60.6674 18.0929V16.007C60.6674 15.4855 61.0875 15.0799 61.5945 15.0799H65.3319C65.8389 15.0654 66.259 15.471 66.259 15.9925L66.288 23.4527C66.288 24.1191 66.8385 24.6696 67.5048 24.6696C68.1712 24.6696 68.7216 24.1191 68.7216 23.4527L68.6927 15.9925C68.6927 14.1383 67.1716 12.6462 65.3174 12.6462H61.5801C59.9431 12.6752 58.5959 13.8485 58.2917 15.3985L51.0632 8.82191C49.9768 7.85135 48.4847 6.51864 46.3843 6.57658V6.54761ZM47.2389 25.0027L39.938 17.9191L43.9651 17.8032L51.8165 24.9448L48.1516 25.4373C47.8184 25.4228 47.4997 25.2635 47.2389 25.0027ZM49.4263 10.5892L58.2338 18.5999L58.2628 24.0612L54.8441 24.3943L44.8922 15.3406L30.4787 15.7462C28.7114 15.7897 27.1759 14.399 27.06 12.6317C27.002 11.7915 27.2773 11.0093 27.8277 10.4009C28.3782 9.79247 29.1459 9.4448 29.9716 9.43032L46.4567 8.96677C47.4997 8.93779 48.3978 9.66209 49.4408 10.5892H49.4263Z" fill="#10403B"/>
<path d="M46.9635 89.6103L63.4486 89.1468C64.9551 89.1033 66.3313 88.4804 67.3308 87.3795C68.3303 86.2785 68.8229 84.8444 68.7215 83.3524C68.5187 80.2958 65.8677 77.8767 62.7967 77.9636L56.785 78.1374L47.8182 69.4458C47.1229 68.707 46.1378 68.2869 45.1238 68.2869H45.0369L35.0705 69.6197V66.143C35.056 65.2449 34.6939 64.4047 34.0565 63.7673C33.4191 63.1299 32.5789 62.7968 31.6808 62.7968H27.9434C26.0892 62.8257 24.5972 64.3323 24.5972 66.172V68.6056C24.5972 69.272 25.1621 69.8225 25.8285 69.8225C26.4948 69.8225 27.0453 69.272 27.0453 68.6056V66.172C27.0453 65.665 27.4654 65.2449 27.9724 65.2449H31.7098C31.956 65.2304 32.1878 65.3173 32.3617 65.5056C32.5355 65.6795 32.6369 65.9112 32.6369 66.1575L32.6803 78.065V80.151C32.6803 80.6725 32.2603 81.0781 31.7532 81.0781H28.0159C27.5089 81.0926 27.0888 80.6869 27.0888 80.1654L27.0598 72.7052C27.0598 72.0388 26.5093 71.4883 25.843 71.4883C25.1766 71.4883 24.6261 72.0388 24.6261 72.7052L24.6551 80.1654C24.6551 82.0197 26.1761 83.5117 28.0303 83.5117H31.7677C33.4046 83.4827 34.7518 82.3094 35.056 80.7594L42.2846 87.336C43.371 88.3066 44.8631 89.6393 46.9635 89.5813V89.6103ZM46.1089 71.1552L53.4098 78.2388L49.3827 78.3547L41.5313 71.2131L45.1962 70.7206C45.5294 70.7351 45.8481 70.8944 46.1089 71.1552ZM43.9215 85.5687L35.114 77.558L35.085 72.0968L38.5037 71.7636L48.4556 80.8173L62.8691 80.4117C64.6364 80.3682 66.1719 81.7589 66.2878 83.5262C66.3458 84.3664 66.0705 85.1486 65.5201 85.757C64.9696 86.3654 64.2018 86.7131 63.3761 86.7276L46.8911 87.1911C45.8481 87.2201 44.95 86.4958 43.907 85.5687H43.9215Z" fill="#10403B"/>
<path d="M46.6737 30.5509C55.9158 30.5509 63.405 38.0402 63.405 47.2822C63.405 56.5243 55.9158 64.0135 46.6737 64.0135C37.4316 64.0135 29.9424 56.5243 29.9424 47.2822C29.9424 39.4743 35.2877 32.9121 42.5307 31.0579" stroke="#0F403B" stroke-miterlimit="10" stroke-linecap="round"/>
<path d="M37.4604 33.7089C38.489 34.2883 39.7637 34.0131 40.9371 33.8537C42.1104 33.6944 43.5156 33.7813 44.1819 34.7663C44.7469 35.6065 44.5296 36.7509 44.9497 37.6635C45.2249 38.243 45.7319 38.721 45.8478 39.3584C45.9927 40.1696 45.3553 40.9808 44.5731 41.2561C43.7908 41.5313 42.9072 41.3575 42.1394 41.0533C41.8642 40.9519 41.589 40.8215 41.2992 40.807C40.3576 40.778 39.8361 41.9948 40.0824 42.893C40.1983 43.342 40.4446 43.7621 40.4446 44.2112C40.4446 45.1818 39.3871 45.7467 38.7787 46.5C37.953 47.514 37.924 49.064 38.5614 50.2084C39.1988 51.3528 40.3866 52.135 41.6614 52.4682C42.9361 52.8014 44.2833 52.729 45.5726 52.4827C46.1086 52.3813 46.659 52.2509 47.2095 52.3378C48.4553 52.5406 49.252 53.8878 49.2955 55.1481C49.339 56.4084 48.8319 57.6252 48.3684 58.7986C47.9048 59.9719 47.6006 62.1448 47.8324 63.3906" stroke="#0F403B" stroke-miterlimit="10" stroke-linecap="round"/>
<path d="M30.6523 44.2692C31.6664 45.0949 32.3762 46.2682 32.6369 47.5575C32.7963 48.3252 32.7818 49.1509 33.1005 49.8752C33.6654 51.1645 35.0851 51.8164 36.3743 52.4103C37.6636 53.0042 39.0397 53.8154 39.3729 55.1916C39.5467 55.9014 39.4019 56.6547 39.5323 57.3645C39.8799 59.3491 42.1687 60.5659 42.5019 62.5505" stroke="#0F403B" stroke-miterlimit="10" stroke-linecap="round"/>
<path d="M53.4675 32.1733C52.6274 33.7523 53.6703 35.7514 55.3942 36.2584C55.8577 36.3888 56.3503 36.4177 56.7703 36.6205C58.1175 37.2579 58.2045 39.0832 58.6101 40.5173C58.9577 41.7775 59.682 43.1392 59.0736 44.2981C58.2189 45.9495 55.6404 45.5294 54.2063 46.7173C52.7867 47.8906 53.0475 50.1649 53.8876 51.8018C54.7278 53.4388 56.0316 54.8729 56.4372 56.6691C56.7703 58.1757 56.6255 60.1747 55.6694 61.3916" stroke="#0F403B" stroke-miterlimit="10" stroke-linecap="round"/>
<path d="M61.7248 69.4458C63.6369 69.4458 65.187 67.8957 65.187 65.9836C65.187 64.0715 63.6369 62.5215 61.7248 62.5215C59.8128 62.5215 58.2627 64.0715 58.2627 65.9836C58.2627 67.8957 59.8128 69.4458 61.7248 69.4458Z" fill="#FAAA42"/>
</svg>
