<svg width="65" height="65" viewBox="0 0 65 65" fill="none" xmlns="http://www.w3.org/2000/svg">
<path d="M32.2219 4.52002L20.8419 4.84002C19.8019 4.87002 18.8519 5.30002 18.1619 6.06002C17.4719 6.82002 17.1319 7.81002 17.2019 8.84002C17.3419 10.95 19.1719 12.62 21.2919 12.56L25.4419 12.44L31.6319 18.44C32.1119 18.95 32.7919 19.24 33.4919 19.24H33.5519L40.4319 18.32V20.72C40.4419 21.34 40.6919 21.92 41.1319 22.36C41.5719 22.8 42.1519 23.03 42.7719 23.03H45.3519C46.6319 23.01 47.6619 21.97 47.6619 20.7V19.02C47.6619 18.56 47.2719 18.18 46.8119 18.18C46.3519 18.18 45.9719 18.56 45.9719 19.02V20.7C45.9719 21.05 45.6819 21.34 45.3319 21.34H42.7519C42.5819 21.35 42.4219 21.29 42.3019 21.16C42.1819 21.04 42.1119 20.88 42.1119 20.71L42.0819 12.49V11.05C42.0819 10.69 42.3719 10.41 42.7219 10.41H45.3019C45.6519 10.4 45.9419 10.68 45.9419 11.04L45.9619 16.19C45.9619 16.65 46.3419 17.03 46.8019 17.03C47.2619 17.03 47.6419 16.65 47.6419 16.19L47.6219 11.04C47.6219 9.76002 46.5719 8.73002 45.2919 8.73002H42.7119C41.5819 8.75002 40.6519 9.56002 40.4419 10.63L35.4519 6.09002C34.7019 5.42002 33.6719 4.50002 32.2219 4.54002V4.52002ZM32.8119 17.26L27.7719 12.37L30.5519 12.29L35.9719 17.22L33.4419 17.56C33.2119 17.55 32.9919 17.44 32.8119 17.26ZM34.3219 7.31002L40.4019 12.84L40.4219 16.61L38.0619 16.84L31.1919 10.59L21.2419 10.87C20.0219 10.9 18.9619 9.94002 18.8819 8.72002C18.8419 8.14002 19.0319 7.60002 19.4119 7.18002C19.7919 6.76002 20.3219 6.52002 20.8919 6.51002L32.2719 6.19002C32.9919 6.17002 33.6119 6.67002 34.3319 7.31002H34.3219Z" fill="#10403B"/>
<path d="M32.6319 61.8599L44.0119 61.5399C45.0519 61.5099 46.0019 61.0799 46.6919 60.3199C47.3819 59.5599 47.7219 58.5699 47.6519 57.5399C47.5119 55.4299 45.6819 53.7599 43.5619 53.8199L39.4119 53.9399L33.2219 47.9399C32.7419 47.4299 32.0619 47.1399 31.3619 47.1399H31.3019L24.4219 48.0599V45.6599C24.4119 45.0399 24.1619 44.4599 23.7219 44.0199C23.2819 43.5799 22.7019 43.3499 22.0819 43.3499H19.5019C18.2219 43.3699 17.1919 44.4099 17.1919 45.6799V47.3599C17.1919 47.8199 17.5819 48.1999 18.0419 48.1999C18.5019 48.1999 18.8819 47.8199 18.8819 47.3599V45.6799C18.8819 45.3299 19.1719 45.0399 19.5219 45.0399H22.1019C22.2719 45.0299 22.4319 45.0899 22.5519 45.2199C22.6719 45.3399 22.7419 45.4999 22.7419 45.6699L22.7719 53.8899V55.3299C22.7719 55.6899 22.4819 55.9699 22.1319 55.9699H19.5519C19.2019 55.9799 18.9119 55.6999 18.9119 55.3399L18.8919 50.1899C18.8919 49.7299 18.5119 49.3499 18.0519 49.3499C17.5919 49.3499 17.2119 49.7299 17.2119 50.1899L17.2319 55.3399C17.2319 56.6199 18.2819 57.6499 19.5619 57.6499H22.1419C23.2719 57.6299 24.2019 56.8199 24.4119 55.7499L29.4019 60.2899C30.1519 60.9599 31.1819 61.8799 32.6319 61.8399V61.8599ZM32.0419 49.1199L37.0819 54.0099L34.3019 54.0899L28.8819 49.1599L31.4119 48.8199C31.6419 48.8299 31.8619 48.9399 32.0419 49.1199ZM30.5319 59.0699L24.4519 53.5399L24.4319 49.7699L26.7919 49.5399L33.6619 55.7899L43.6119 55.5099C44.8319 55.4799 45.8919 56.4399 45.9719 57.6599C46.0119 58.2399 45.8219 58.7799 45.4419 59.1999C45.0619 59.6199 44.5319 59.8599 43.9619 59.8699L32.5819 60.1899C31.8619 60.2099 31.2419 59.7099 30.5219 59.0699H30.5319Z" fill="#10403B"/>
<path d="M32.4221 21.0898C38.8021 21.0898 43.9721 26.2598 43.9721 32.6398C43.9721 39.0198 38.8021 44.1898 32.4221 44.1898C26.0421 44.1898 20.8721 39.0198 20.8721 32.6398C20.8721 27.2498 24.5621 22.7198 29.5621 21.4398" stroke="#10403B" stroke-miterlimit="10" stroke-linecap="round"/>
<path d="M26.062 23.2698C26.772 23.6698 27.652 23.4798 28.462 23.3698C29.272 23.2598 30.242 23.3198 30.702 23.9998C31.092 24.5798 30.942 25.3698 31.232 25.9998C31.422 26.3998 31.772 26.7298 31.852 27.1698C31.952 27.7298 31.512 28.2898 30.972 28.4798C30.432 28.6698 29.822 28.5498 29.292 28.3398C29.102 28.2698 28.912 28.1798 28.712 28.1698C28.062 28.1498 27.702 28.9898 27.872 29.6098C27.952 29.9198 28.122 30.2098 28.122 30.5198C28.122 31.1898 27.392 31.5798 26.972 32.0998C26.402 32.7998 26.382 33.8698 26.822 34.6598C27.262 35.4498 28.082 35.9898 28.962 36.2198C29.842 36.4498 30.772 36.3998 31.662 36.2298C32.032 36.1598 32.412 36.0698 32.792 36.1298C33.652 36.2698 34.202 37.1998 34.232 38.0698C34.262 38.9398 33.912 39.7798 33.592 40.5898C33.272 41.3998 33.062 42.8998 33.222 43.7598" stroke="#10403B" stroke-miterlimit="10" stroke-linecap="round"/>
<path d="M21.3721 30.5598C22.0721 31.1298 22.5621 31.9398 22.7421 32.8298C22.8521 33.3598 22.8421 33.9298 23.0621 34.4298C23.4521 35.3198 24.4321 35.7698 25.3221 36.1798C26.2121 36.5898 27.1621 37.1498 27.3921 38.0998C27.5121 38.5898 27.4121 39.1098 27.5021 39.5998C27.7421 40.9698 29.3221 41.8098 29.5521 43.1798" stroke="#10403B" stroke-miterlimit="10" stroke-linecap="round"/>
<path d="M37.1122 22.2197C36.5322 23.3097 37.2522 24.6897 38.4422 25.0397C38.7622 25.1297 39.1022 25.1497 39.3922 25.2897C40.3222 25.7297 40.3822 26.9897 40.6622 27.9797C40.9022 28.8497 41.4022 29.7897 40.9822 30.5897C40.3922 31.7297 38.6122 31.4397 37.6222 32.2597C36.6422 33.0697 36.8222 34.6397 37.4022 35.7697C37.9822 36.8997 38.8822 37.8897 39.1622 39.1297C39.3922 40.1697 39.2922 41.5497 38.6322 42.3897" stroke="#10403B" stroke-miterlimit="10" stroke-linecap="round"/>
<path d="M42.8119 47.9399C44.1318 47.9399 45.2019 46.8699 45.2019 45.5499C45.2019 44.23 44.1318 43.1599 42.8119 43.1599C41.4919 43.1599 40.4219 44.23 40.4219 45.5499C40.4219 46.8699 41.4919 47.9399 42.8119 47.9399Z" fill="#FAAA42"/>
</svg>
