<svg width="76" height="76" viewBox="0 0 76 76" fill="none" xmlns="http://www.w3.org/2000/svg">
<circle cx="38" cy="38" r="38" fill="#E4D6C0"/>
<path d="M27.176 44.566C30.928 41.766 33.896 39.232 36.08 36.964C38.264 34.668 39.356 32.526 39.356 30.538C39.356 29.866 39.202 29.348 38.894 28.984C38.614 28.62 38.236 28.438 37.76 28.438C37.2 28.438 36.752 28.732 36.416 29.32C36.108 29.88 35.996 30.748 36.08 31.924H27.05C27.134 29.32 27.694 27.178 28.73 25.498C29.794 23.818 31.166 22.586 32.846 21.802C34.526 21.018 36.374 20.626 38.39 20.626C41.974 20.626 44.592 21.494 46.244 23.23C47.924 24.938 48.764 27.136 48.764 29.824C48.764 32.652 47.854 35.312 46.034 37.804C44.242 40.268 41.988 42.354 39.272 44.062H48.89V51.58H27.176V44.566Z" fill="#B7795E"/>
</svg>
