<svg width="76" height="76" viewBox="0 0 76 76" fill="none" xmlns="http://www.w3.org/2000/svg">
<circle cx="38" cy="38" r="38" fill="#E4D6C0"/>
<path d="M26.89 30.916C26.974 27.584 27.94 25.036 29.788 23.272C31.664 21.508 34.31 20.626 37.726 20.626C39.938 20.626 41.828 21.004 43.396 21.76C44.964 22.516 46.14 23.538 46.924 24.826C47.736 26.114 48.142 27.57 48.142 29.194C48.142 31.154 47.68 32.694 46.756 33.814C45.832 34.906 44.796 35.648 43.648 36.04V36.208C47.008 37.468 48.688 39.806 48.688 43.222C48.688 45.014 48.268 46.596 47.428 47.968C46.588 49.34 45.384 50.404 43.816 51.16C42.276 51.916 40.442 52.294 38.314 52.294C34.674 52.294 31.818 51.426 29.746 49.69C27.674 47.954 26.61 45.238 26.554 41.542H35.626C35.57 42.55 35.71 43.32 36.046 43.852C36.41 44.356 37.026 44.608 37.894 44.608C38.398 44.608 38.818 44.426 39.154 44.062C39.49 43.67 39.658 43.166 39.658 42.55C39.658 41.766 39.392 41.178 38.86 40.786C38.356 40.366 37.488 40.156 36.256 40.156H34.702V32.638H36.214C38.118 32.75 39.07 31.994 39.07 30.37C39.07 29.67 38.916 29.152 38.608 28.816C38.328 28.48 37.964 28.312 37.516 28.312C36.48 28.312 35.962 29.18 35.962 30.916H26.89Z" fill="#B7795E"/>
</svg>
