<svg width="59" height="45" viewBox="0 0 59 45" fill="none" xmlns="http://www.w3.org/2000/svg">
<g clip-path="url(#clip0_304_393)">
<path d="M59 22.2029L58.5338 5.39118C58.4904 3.86184 57.8615 2.45353 56.7554 1.4303C55.6494 0.418077 54.218 -0.0880352 52.7108 0.0109868C49.642 0.220033 47.2131 2.92664 47.2998 6.05133L47.4733 12.1797L38.7334 21.3227C37.996 22.0379 37.5731 23.0391 37.5623 24.0733V24.1614L38.9069 34.3276H35.4152C34.5152 34.3496 33.6694 34.7017 33.0296 35.3508C32.3899 36 32.0429 36.8582 32.0537 37.7714V41.5782C32.0754 43.4596 33.5935 44.989 35.4478 44.989H37.8984C38.5707 44.978 39.1129 44.4169 39.1129 43.7347C39.1129 43.0526 38.5599 42.5024 37.8876 42.5024H35.4478C34.9381 42.5024 34.5152 42.0953 34.5152 41.5672V37.7604C34.4935 37.5073 34.5911 37.2653 34.7755 37.0892C34.949 36.9132 35.1875 36.8142 35.4369 36.8142L47.3974 36.7592H49.5011C50.0107 36.7592 50.4336 37.1772 50.4336 37.6944V41.5012C50.4553 42.0183 50.0324 42.4474 49.5227 42.4474L42.0298 42.4804C41.3575 42.4804 40.8153 43.0415 40.8153 43.7237C40.8153 44.4059 41.3684 44.956 42.0407 44.956L49.5336 44.923C51.3987 44.923 52.9059 43.3716 52.8951 41.4792V37.6724C52.8734 36.011 51.6915 34.6247 50.1408 34.3276L56.7446 26.956C57.7205 25.8447 59.0651 24.3264 59 22.1809V22.2029ZM40.4467 23.0831L47.5601 15.6455L47.6793 19.7604L40.5009 27.7592L40.0021 24.0183C40.0238 23.6772 40.1756 23.3472 40.4467 23.0831ZM54.9229 25.3166L46.8769 34.2946L41.3792 34.3166L41.0431 30.8288L50.1408 20.6846L49.7288 5.98531C49.6746 4.18091 51.0842 2.60756 52.8626 2.49754C53.7084 2.44253 54.5 2.71759 55.1072 3.27871C55.7144 3.83984 56.0614 4.62101 56.0831 5.4682L56.5494 22.2799C56.5819 23.3472 55.8554 24.2494 54.9229 25.3166Z" fill="#10403B"/>
<path d="M2.26639 26.9672L8.87014 34.3389C7.3195 34.6359 6.13755 36.0222 6.12671 37.6836V41.4904C6.10502 43.3829 7.61228 44.9232 9.47738 44.9342L16.9703 44.9672C17.6426 44.9672 18.1848 44.4171 18.1956 43.7349C18.1956 43.0528 17.6535 42.4917 16.9811 42.4917L9.48822 42.4587C8.97857 42.4587 8.55567 42.0296 8.55567 41.5124V37.7056C8.57736 37.1885 8.98942 36.7594 9.49907 36.7594H11.6027L23.5632 36.8144C23.8126 36.8144 24.0512 36.9134 24.2247 37.0895C24.3982 37.2655 24.4958 37.5076 24.4958 37.7606V41.5675C24.4741 42.0846 24.062 42.5137 23.5524 42.5137H21.1126C20.4403 42.5137 19.8981 43.0528 19.8872 43.7349C19.8872 44.4171 20.4294 44.9782 21.1017 44.9782H23.5524C25.4066 44.9782 26.9247 43.4599 26.9247 41.5785V37.7716C26.9464 36.8584 26.5994 36.0002 25.9596 35.3511C25.3199 34.7019 24.4741 34.3389 23.5741 34.3389H20.0824L21.427 24.1616V24.0736C21.427 23.0393 20.9933 22.0381 20.2559 21.323L11.5377 12.1799L11.7112 6.05157C11.7979 2.92688 9.36894 0.220277 6.30021 0.0112309C4.79295 -0.0877911 3.35075 0.418321 2.25555 1.43055C1.1495 2.45377 0.52057 3.85108 0.477195 5.39143L7.72122e-05 22.2032C-0.0649844 24.3376 1.27962 25.867 2.25555 26.9782L2.26639 26.9672ZM18.9981 24.0076L18.4993 27.7484L11.3208 19.7496L11.4401 15.6347L18.5535 23.0724C18.8246 23.3364 18.9764 23.6665 18.9981 24.0076ZM2.45073 22.2692L2.917 5.45744C2.93869 4.59925 3.28569 3.82908 3.89293 3.26795C4.50017 2.70683 5.29175 2.43177 6.13755 2.48678C7.9159 2.60781 9.31472 4.17015 9.27135 5.97456L8.85929 20.6738L17.9571 30.8181L17.6209 34.3058L12.1232 34.2838L4.07727 25.3058C3.13388 24.2386 2.4182 23.3364 2.45073 22.2692Z" fill="#10403B"/>
<path d="M29.5054 15.4804C33.0838 15.4804 35.979 12.5428 35.979 8.91197C35.979 5.28116 33.0838 2.34351 29.5054 2.34351C25.927 2.34351 23.0317 5.28116 23.0317 8.91197C23.0317 12.5428 25.927 15.4804 29.5054 15.4804Z" fill="#FAAA42"/>
</g>
<defs>
<clipPath id="clip0_304_393">
<rect width="59" height="45" fill="white"/>
</clipPath>
</defs>
</svg>
