<svg width="66" height="50" viewBox="0 0 66 50" fill="none" xmlns="http://www.w3.org/2000/svg">
<g clip-path="url(#clip0_304_401)">
<path d="M66.0001 24.6698L65.4785 5.99009C65.43 4.29083 64.7264 2.72604 63.4891 1.58912C62.2519 0.464422 60.6507 -0.0979254 58.9646 0.012099C55.5318 0.244373 52.8146 3.25171 52.9117 6.72359L53.1058 13.5329L43.3289 23.6918C42.504 24.4864 42.031 25.5989 42.0188 26.748V26.8458L43.523 38.1417H39.6171C38.6103 38.1661 37.6641 38.5573 36.9484 39.2786C36.2328 39.9999 35.8446 40.9534 35.8567 41.9681V46.1979C35.881 48.2884 37.5792 49.9876 39.6534 49.9876H42.3949C43.1469 49.9754 43.7534 49.352 43.7534 48.594C43.7534 47.8361 43.1348 47.2248 42.3827 47.2248H39.6534C39.0833 47.2248 38.6103 46.7725 38.6103 46.1857V41.9559C38.586 41.6747 38.6952 41.4057 38.9014 41.2101C39.0955 41.0145 39.3623 40.9045 39.6413 40.9045L53.0208 40.8434H55.3741C55.9442 40.8434 56.4173 41.3079 56.4173 41.8825V46.1123C56.4415 46.6869 55.9685 47.1637 55.3983 47.1637L47.0164 47.2004C46.2644 47.2004 45.6579 47.8238 45.6579 48.5818C45.6579 49.3397 46.2765 49.951 47.0286 49.951L55.4105 49.9143C57.4969 49.9143 59.1829 48.1906 59.1708 46.0879V41.8581C59.1466 40.0121 57.8244 38.4718 56.0898 38.1417L63.477 29.951C64.5687 28.7163 66.0729 27.0292 66.0001 24.6453V24.6698ZM45.2454 25.6478L53.2028 17.3837L53.3362 21.9559L45.3061 30.8434L44.7481 26.6869C44.7724 26.3079 44.9422 25.9412 45.2454 25.6478ZM61.4392 28.1295L52.4386 38.105L46.2886 38.1295L45.9126 34.2542L56.0898 22.9828L55.6288 6.65024C55.5682 4.64535 57.1451 2.89718 59.1344 2.77494C60.0806 2.71381 60.9661 3.01943 61.6454 3.64291C62.3247 4.26638 62.7128 5.13435 62.7371 6.07567L63.2587 24.7554C63.2951 25.9412 62.4823 26.9436 61.4392 28.1295Z" fill="#10403B"/>
<path d="M2.5353 29.9637L9.92254 38.1544C8.18794 38.4845 6.86575 40.0248 6.85362 41.8708V46.1006C6.82936 48.2033 8.51545 49.9148 10.6018 49.927L18.9837 49.9637C19.7358 49.9637 20.3423 49.3524 20.3545 48.5945C20.3545 47.8365 19.7479 47.2131 18.9959 47.2131L10.614 47.1764C10.0438 47.1764 9.57077 46.6996 9.57077 46.125V41.8952C9.59503 41.3207 10.056 40.8439 10.6261 40.8439H12.9793L26.3589 40.905C26.6379 40.905 26.9047 41.015 27.0988 41.2106C27.2929 41.4062 27.4021 41.6752 27.4021 41.9563V46.1862C27.3778 46.7607 26.9168 47.2375 26.3467 47.2375H23.6175C22.8654 47.2375 22.2589 47.8365 22.2467 48.5945C22.2467 49.3524 22.8533 49.9759 23.6053 49.9759H26.3467C28.421 49.9759 30.1192 48.2889 30.1192 46.1984V41.9686C30.1435 40.9539 29.7553 40.0004 29.0396 39.2791C28.3239 38.5578 27.3778 38.1544 26.371 38.1544H22.4651L23.9692 26.8463V26.7485C23.9692 25.5994 23.484 24.4869 22.6592 23.6923L12.9066 13.5334L13.1006 6.72408C13.1977 3.2522 10.4805 0.244861 7.0477 0.0125873C5.36162 -0.0974371 3.74831 0.46491 2.52317 1.5896C1.2859 2.72652 0.582349 4.27909 0.533828 5.99058L0.000102925 24.6703C-0.0726778 27.0419 1.43146 28.7412 2.52317 29.9759L2.5353 29.9637ZM21.2521 26.6752L20.6941 30.8317L12.664 21.9441L12.7974 17.372L20.7547 25.6361C21.058 25.9295 21.2278 26.2962 21.2521 26.6752ZM2.74151 24.7436L3.26311 6.06393C3.28737 5.11039 3.67553 4.25464 4.35482 3.63117C5.0341 3.0077 5.9196 2.70207 6.86575 2.7632C8.85509 2.89767 10.4199 4.63361 10.3714 6.6385L9.91041 22.971L20.0876 34.2424L19.7116 38.1177L13.5616 38.0933L4.56103 28.1177C3.50571 26.9319 2.70512 25.9295 2.74151 24.7436Z" fill="#10403B"/>
<path d="M33.0058 17.2006C37.0088 17.2006 40.2475 13.9365 40.2475 9.90229C40.2475 5.86806 37.0088 2.604 33.0058 2.604C29.0029 2.604 25.7642 5.86806 25.7642 9.90229C25.7642 13.9365 29.0029 17.2006 33.0058 17.2006Z" fill="#FAAA42"/>
</g>
<defs>
<clipPath id="clip0_304_401">
<rect width="66" height="50" fill="white"/>
</clipPath>
</defs>
</svg>
