<svg width="113" height="108" viewBox="0 0 113 108" fill="none" xmlns="http://www.w3.org/2000/svg">
<path d="M50.4672 48.1685H70.7164C73.3706 48.1685 75.5264 49.4146 75.5264 50.9473V79.0968C75.5264 80.6295 73.3706 81.8756 70.7164 81.8756H41.2709C38.6167 81.8756 36.4609 80.6295 36.4609 79.0968V50.9473C36.4609 49.4146 38.6167 48.1685 41.2709 48.1685H44.6728" stroke="#10403B" stroke-width="3" stroke-miterlimit="10" stroke-linecap="round"/>
<path d="M43.4019 43.3584V38.6855C43.4019 31.7447 49.0343 26.1123 55.9751 26.1123C62.9159 26.1123 68.5483 31.7447 68.5483 38.6855V43.6326" stroke="#10403B" stroke-width="3" stroke-miterlimit="10" stroke-linecap="round"/>
<path d="M55.9997 69.5141C57.8441 69.5141 59.3393 68.0189 59.3393 66.1745C59.3393 64.3301 57.8441 62.835 55.9997 62.835C54.1553 62.835 52.6602 64.3301 52.6602 66.1745C52.6602 68.0189 54.1553 69.5141 55.9997 69.5141Z" fill="#FAAA42"/>
</svg>
