<svg width="113" height="108" viewBox="0 0 113 108" fill="none" xmlns="http://www.w3.org/2000/svg">
<g clip-path="url(#clip0_407_968)">
<path d="M50.4672 48.1682H70.7164C73.3706 48.1682 75.5264 49.4143 75.5264 50.947V79.0966C75.5264 80.6293 73.3706 81.8754 70.7164 81.8754H41.2709C38.6167 81.8754 36.4609 80.6293 36.4609 79.0966V50.947C36.4609 49.4143 38.6167 48.1682 41.2709 48.1682H44.6728" stroke="#10403B" stroke-width="3" stroke-miterlimit="10" stroke-linecap="round"/>
<path d="M43.4019 43.3582V38.6853C43.4019 31.7445 49.0343 26.1121 55.9751 26.1121C62.9159 26.1121 68.5483 31.7445 68.5483 38.6853V43.6323" stroke="#10403B" stroke-width="3" stroke-miterlimit="10" stroke-linecap="round"/>
<path d="M55.9997 69.5138C57.8441 69.5138 59.3393 68.0187 59.3393 66.1743C59.3393 64.3299 57.8441 62.8347 55.9997 62.8347C54.1553 62.8347 52.6602 64.3299 52.6602 66.1743C52.6602 68.0187 54.1553 69.5138 55.9997 69.5138Z" fill="#FAAA42"/>
</g>
<defs>
<clipPath id="clip0_407_968">
<rect width="80" height="80" fill="white" transform="translate(16 14)"/>
</clipPath>
</defs>
</svg>
