<svg width="25" height="24" viewBox="0 0 25 24" fill="none" xmlns="http://www.w3.org/2000/svg">
<g id="insta">
<path id="Fill 1" fill-rule="evenodd" clip-rule="evenodd" d="M12.8667 0C9.60993 0 9.20156 0.0138139 7.92252 0.0722133C6.64615 0.13047 5.77443 0.333343 5.01167 0.630008C4.22311 0.936629 3.55437 1.34695 2.88767 2.01406C2.22101 2.68123 1.81098 3.35044 1.50457 4.13954C1.20811 4.90283 1.00538 5.77516 0.947163 7.05242C0.888804 8.33234 0.875 8.741 0.875 12C0.875 15.259 0.888804 15.6677 0.947163 16.9476C1.00538 18.2248 1.20811 19.0972 1.50457 19.8605C1.81098 20.6496 2.22101 21.3188 2.88767 21.9859C3.55437 22.653 4.22311 23.0634 5.01167 23.37C5.77443 23.6667 6.64615 23.8695 7.92252 23.9278C9.20156 23.9862 9.60993 24 12.8667 24C16.1234 24 16.5318 23.9862 17.8108 23.9278C19.0872 23.8695 19.9589 23.6667 20.7217 23.37C21.5102 23.0634 22.179 22.653 22.8457 21.9859C23.5123 21.3188 23.9224 20.6496 24.2288 19.8605C24.5252 19.0972 24.728 18.2248 24.7862 16.9476C24.8445 15.6677 24.8583 15.259 24.8583 12C24.8583 8.741 24.8445 8.33234 24.7862 7.05242C24.728 5.77516 24.5252 4.90283 24.2288 4.13954C23.9224 3.35044 23.5123 2.68123 22.8457 2.01406C22.179 1.34695 21.5102 0.936629 20.7217 0.630008C19.9589 0.333343 19.0872 0.13047 17.8108 0.0722133C16.5318 0.0138139 16.1234 0 12.8667 0ZM12.8667 2.16216C16.0686 2.16216 16.4479 2.1744 17.7123 2.23213C18.8815 2.28548 19.5165 2.48097 19.939 2.64531C20.4988 2.863 20.8982 3.12303 21.3178 3.54297C21.7375 3.96287 21.9973 4.36261 22.2149 4.92274C22.3791 5.34559 22.5744 5.98098 22.6278 7.15097C22.6855 8.41632 22.6977 8.79587 22.6977 12C22.6977 15.2041 22.6855 15.5837 22.6278 16.849C22.5744 18.019 22.3791 18.6544 22.2149 19.0773C21.9973 19.6374 21.7375 20.0371 21.3178 20.457C20.8982 20.877 20.4988 21.137 19.939 21.3547C19.5165 21.519 18.8815 21.7145 17.7123 21.7679C16.4481 21.8256 16.0688 21.8378 12.8667 21.8378C9.66453 21.8378 9.28534 21.8256 8.02101 21.7679C6.85183 21.7145 6.21688 21.519 5.79433 21.3547C5.23459 21.137 4.83512 20.877 4.41552 20.457C3.99591 20.0371 3.73601 19.6374 3.51848 19.0773C3.35425 18.6544 3.1589 18.019 3.10558 16.849C3.04789 15.5837 3.03566 15.2041 3.03566 12C3.03566 8.79587 3.04789 8.41632 3.10558 7.15097C3.1589 5.98098 3.35425 5.34559 3.51848 4.92274C3.73601 4.36261 3.99587 3.96287 4.41552 3.54297C4.83512 3.12303 5.23459 2.863 5.79433 2.64531C6.21688 2.48097 6.85183 2.28548 8.02101 2.23213C9.28548 2.1744 9.66477 2.16216 12.8667 2.16216Z" fill="#10403B"/>
<path id="Fill 4" fill-rule="evenodd" clip-rule="evenodd" d="M12.8669 15.9996C10.6592 15.9996 8.86961 14.2087 8.86961 11.9996C8.86961 9.79042 10.6592 7.99957 12.8669 7.99957C15.0744 7.99957 16.8641 9.79042 16.8641 11.9996C16.8641 14.2087 15.0744 15.9996 12.8669 15.9996ZM12.8669 5.77734C9.43275 5.77734 6.64893 8.56311 6.64893 11.9996C6.64893 15.436 9.43275 18.2218 12.8669 18.2218C16.3009 18.2218 19.0847 15.436 19.0847 11.9996C19.0847 8.56311 16.3009 5.77734 12.8669 5.77734Z" fill="#10403B"/>
<path id="Fill 5" fill-rule="evenodd" clip-rule="evenodd" d="M20.8609 5.55558C20.8609 6.4147 20.1649 7.11111 19.3064 7.11111C18.4479 7.11111 17.752 6.4147 17.752 5.55558C17.752 4.69646 18.4479 4 19.3064 4C20.1649 4 20.8609 4.69646 20.8609 5.55558Z" fill="#10403B"/>
</g>
</svg>
