<svg width="50" height="48" viewBox="0 0 50 48" fill="none" xmlns="http://www.w3.org/2000/svg">
<path id="linkedin [#161]" fill-rule="evenodd" clip-rule="evenodd" d="M49.8964 48H40.303V31.2024C40.303 26.5944 38.2717 24.024 34.6286 24.024C30.6641 24.024 28.3114 26.7024 28.3114 31.2024V48H18.718V16.8H28.3114V20.3088C28.3114 20.3088 31.3213 15.024 38.1038 15.024C44.8887 15.024 49.8964 19.1664 49.8964 27.7392C49.8964 36.3096 49.8964 48 49.8964 48ZM7.78642 11.8104C4.55107 11.8104 1.92969 9.1656 1.92969 5.904C1.92969 2.6448 4.55107 0 7.78642 0C11.0194 0 13.6408 2.6448 13.6408 5.904C13.6432 9.1656 11.0194 11.8104 7.78642 11.8104ZM1.92969 48H13.9214V16.8H1.92969V48Z" fill="#10403B"/>
</svg>
