<svg width="46" height="55" viewBox="0 0 46 55" fill="none" xmlns="http://www.w3.org/2000/svg">
<g clip-path="url(#clip0_275_74)">
<path d="M1.5 44.87H44.15" stroke="#10403B" stroke-width="3" stroke-miterlimit="10" stroke-linecap="round"/>
<path d="M29.5499 45.91C29.5499 49.62 26.5399 52.63 22.8299 52.63C19.1199 52.63 16.1099 49.62 16.1099 45.91" stroke="#10403B" stroke-width="3" stroke-miterlimit="10" stroke-linecap="round"/>
<path d="M11.2802 11.78C8.32023 14.74 6.49023 18.82 6.49023 23.34V43.21" stroke="#10403B" stroke-width="3" stroke-miterlimit="10" stroke-linecap="round"/>
<path d="M39.1602 44.24V23.34C39.1602 14.32 31.8502 7.01001 22.8302 7.01001C20.1102 7.01001 17.5502 7.67001 15.3002 8.85001C15.1802 8.91001 15.0502 8.98001 14.9302 9.05001" stroke="#10403B" stroke-width="3" stroke-miterlimit="10" stroke-linecap="round"/>
<path d="M22.8202 4.16C23.969 4.16 24.9002 3.22875 24.9002 2.08C24.9002 0.931248 23.969 0 22.8202 0C21.6715 0 20.7402 0.931248 20.7402 2.08C20.7402 3.22875 21.6715 4.16 22.8202 4.16Z" fill="#FAAA42"/>
</g>
<defs>
<clipPath id="clip0_275_74">
<rect width="45.65" height="54.13" fill="white"/>
</clipPath>
</defs>
</svg>
