<svg width="270" height="56" viewBox="0 0 270 56" fill="none" xmlns="http://www.w3.org/2000/svg">
<path d="M66.3895 11.6791C62.2189 11.6791 59.4152 13.0723 56.6114 16.554V12.5865H44.5103V46.2139H57.2963V27.9009C57.2963 24.5588 58.8701 22.6798 61.671 22.6798C64.4719 22.6798 65.9786 24.489 65.9786 27.9009V46.2111H78.7646V25.3238C78.7646 20.6583 77.6716 17.386 75.2089 15.0184C72.953 12.7903 69.9452 11.6763 66.3895 11.6763V11.6791ZM177.558 24.3382C175.464 25.2708 174.061 26.9432 171.936 29.47C171.033 30.5477 170.061 31.5836 169.049 32.5496C168.847 32.7395 168.641 32.9293 168.395 33.1443C168.054 33.4403 167.427 33.9847 166.636 34.4761C168.006 34.1216 169.312 33.0131 172.079 30.6622L172.132 30.6175C172.208 30.5533 172.386 30.4026 172.627 30.1987C172.697 30.1401 172.775 30.0731 172.867 29.9977L172.901 29.9698C173.901 29.135 175.148 28.0991 176.026 27.4904C177.454 26.4993 178.805 25.5611 180.49 25.7091C181.167 25.7678 181.837 26.0023 182.469 26.3932C182.346 25.5947 182.167 24.8129 181.938 24.0507C181.295 23.8413 180.633 23.7407 179.97 23.7575C179.204 23.777 178.371 23.9753 177.561 24.3382H177.558ZM87.7879 46.2111H100.574V0H87.7879V46.2111ZM174.734 23.3471C173.966 23.9753 173.496 24.4946 172.445 25.7063C170.941 27.443 170.186 28.3141 169.253 29.4477C168.671 30.1541 168.054 30.8493 167.458 31.5194C166.871 32.1811 166.262 32.8651 165.694 33.5548L165.65 33.6078C165.49 33.8033 165.328 33.9987 165.158 34.1858C166.323 33.686 167.321 32.8205 167.774 32.4268C168.009 32.223 168.207 32.0443 168.395 31.8628C169.381 30.9191 170.329 29.9084 171.212 28.8586C173.421 26.2284 174.88 24.4918 177.172 23.4699C178.094 23.0595 179.053 22.8305 179.945 22.8082C180.493 22.797 181.035 22.8501 181.572 22.9673C181.345 22.3615 181.086 21.7696 180.792 21.2C179.59 21.119 178.405 21.2893 177.351 21.7025C176.194 22.1549 175.419 22.7887 174.734 23.3471ZM18.4605 11.6791C7.93041 11.6791 0 19.1227 0 29.0261C0 38.9294 7.93041 46.44 18.4605 46.44C28.9906 46.44 36.9909 38.9965 36.9909 29.2997C36.9909 19.0557 29.1974 11.6791 18.4605 11.6791ZM18.5276 37.3575C14.7678 37.3575 12.7831 34.4901 12.7831 29.0261C12.7831 23.562 14.765 20.7616 18.4577 20.7616C22.1503 20.7616 24.2021 23.6291 24.2021 29.1629C24.2021 34.6967 22.1503 37.3575 18.5276 37.3575ZM126.828 24.7235C126.761 24.8603 126.554 25.8152 126.35 26.7031C126.146 27.3871 125.939 28.0684 125.802 28.7525C125.598 29.4365 125.461 30.1178 125.254 30.8688C125.254 31.0056 125.117 31.5529 124.913 32.3039C124.776 31.8265 124.639 31.2793 124.572 30.8688C123.753 27.658 123.546 26.7701 122.998 24.7235L119.579 12.567H106.042L116.776 41.3194C117.117 42.2073 117.324 43.0952 117.324 43.5726C117.324 45.2813 116.094 46.2362 113.972 46.2362H109.527V56.0028H118.554C125.665 56.0028 128.743 53.543 131.613 45.555L143.647 12.5698H130.11L126.828 24.7263V24.7235ZM165.261 26.8232C167.19 26.8232 168.758 25.2317 168.758 23.2745C168.758 21.3172 167.19 19.7258 165.261 19.7258C163.332 19.7258 161.764 21.3172 161.764 23.2745C161.764 25.2317 163.332 26.8232 165.261 26.8232ZM213.182 11.6819C209.011 11.6819 206.207 13.0835 203.404 16.5875V12.5921H191.303V46.4428H204.088V28.007C204.088 24.6426 205.662 22.7496 208.463 22.7496C211.264 22.7496 212.771 24.5728 212.771 28.007V46.44H225.557V25.4132C225.557 20.717 224.464 17.4251 222.001 15.0407C219.745 12.7987 216.737 11.6763 213.182 11.6763V11.6819ZM252.359 37.5641C248.736 37.5641 246.206 35.4478 245.725 32.1001H269.997C269.997 27.2503 269.449 24.3159 268.219 21.5825C265.279 15.3004 259.126 11.6791 251.604 11.6791C240.87 11.6791 233.073 18.9859 233.073 28.9563C233.073 38.9267 240.8 46.44 251.945 46.44C260.56 46.44 267.945 41.7969 269.449 35.378H257.004C256.048 36.8801 254.542 37.5641 252.356 37.5641H252.359ZM251.47 20.0804C254.684 20.0804 256.87 22.0599 257.214 25.2708H245.795C246.136 22.0599 248.325 20.0804 251.47 20.0804ZM154.124 27.0521C154.949 26.2787 155.676 25.9241 156.414 25.9325C157.496 25.9464 158.172 26.6389 158.354 26.8511C158.544 27.0744 158.703 27.3146 158.994 27.9428C159.243 28.476 159.514 29.2829 159.645 31.215C159.676 31.6646 159.687 32.0052 159.696 32.2788C159.715 32.9126 159.726 33.0717 159.886 33.3482C160.129 33.767 160.503 34.1048 161.004 34.3477C161.043 34.3672 162.013 34.8279 163.095 34.4957C163.894 34.25 164.367 33.6776 164.914 33.0131L164.959 32.9601C165.541 32.2565 166.153 31.564 166.745 30.8967C167.335 30.2322 167.945 29.5454 168.515 28.853C169.457 27.7082 170.214 26.8343 171.724 25.0921C172.789 23.8608 173.306 23.294 174.131 22.6211C174.832 22.0488 175.704 21.334 177.002 20.8286C178.011 20.435 179.12 20.2367 180.255 20.2423C177.222 15.1189 171.634 11.6735 165.255 11.6735C164.968 11.6735 164.682 11.6819 164.397 11.6959C155.206 12.1705 147.899 19.7649 147.899 29.0624C147.899 30.584 148.095 32.061 148.464 33.4682C150.991 30.5729 152.813 28.4788 153.47 27.7054C153.537 27.6273 153.8 27.3592 154.122 27.0577L154.124 27.0521ZM165.261 18.7793C167.715 18.7793 169.706 20.7923 169.706 23.2745C169.706 25.7566 167.715 27.7697 165.261 27.7697C162.807 27.7697 160.816 25.7566 160.816 23.2745C160.816 20.7923 162.807 18.7793 165.261 18.7793ZM180.406 26.6556C179.062 26.5384 177.96 27.3034 176.568 28.2694C175.724 28.8558 174.444 29.9223 173.507 30.6985L173.474 30.7264C173.384 30.8018 173.306 30.866 173.236 30.9247C172.999 31.1229 172.822 31.2737 172.747 31.3379L172.694 31.3826C169.476 34.116 168.146 35.2495 166.315 35.5036C166.021 35.5455 165.465 35.5595 164.859 35.5595C164.445 35.5595 164.006 35.5539 163.615 35.5427L162.401 35.5567H162.396C162.396 35.5567 162.39 35.5567 162.385 35.5567C162.351 35.5567 162.318 35.5567 162.284 35.5567C161.376 35.5567 160.691 35.2412 160.59 35.1937C159.751 34.7861 159.299 34.2193 159.064 33.8144C158.781 33.323 158.767 32.9601 158.748 32.3039C158.74 32.0387 158.728 31.7064 158.698 31.2737C158.575 29.484 158.331 28.7636 158.13 28.3364C157.859 27.7557 157.744 27.5965 157.63 27.4625C157.549 27.3676 157.101 26.8846 156.4 26.8762C156.101 26.8706 155.603 26.9572 154.773 27.7389C154.443 28.0461 154.225 28.275 154.197 28.3085C153.501 29.1294 151.603 31.3072 148.788 34.5348C151.083 41.4451 157.602 46.4345 165.289 46.4456C174.877 46.4317 182.673 38.6363 182.673 29.0568C182.673 28.5933 182.654 28.1354 182.62 27.6803C181.924 27.0661 181.181 26.7198 180.409 26.65L180.406 26.6556Z" fill="#10403B"/>
</svg>
