<svg width="128" height="134" viewBox="0 0 128 134" fill="none" xmlns="http://www.w3.org/2000/svg">
<path d="M8.7327 113.035C3.75145 113.035 0 116.556 0 121.24C0 125.924 3.75145 129.476 8.7327 129.476C13.714 129.476 17.4993 125.955 17.4993 121.367C17.4993 116.522 13.8127 113.032 8.7327 113.032V113.035ZM8.76373 125.181C6.9839 125.181 6.04745 123.823 6.04745 121.24C6.04745 118.657 6.98672 117.33 8.7327 117.33C10.4787 117.33 11.449 118.688 11.449 121.305C11.449 123.922 10.4787 125.181 8.76373 125.181ZM100.858 113.035C98.8832 113.035 97.5575 113.697 96.2318 115.356V113.466H90.5059V129.476H96.5561V120.758C96.5561 119.167 97.3008 118.271 98.6265 118.271C99.9522 118.271 100.666 119.133 100.666 120.758V129.476H106.716V119.53C106.716 117.311 106.2 115.75 105.035 114.623C103.969 113.561 102.544 113.032 100.863 113.032L100.858 113.035ZM78.1825 113.035C73.2012 113.035 69.4498 116.556 69.4498 121.24C69.4498 125.924 73.2012 129.476 78.1825 129.476C83.1637 129.476 86.9491 125.955 86.9491 121.367C86.9491 116.522 83.2625 113.032 78.1825 113.032V113.035ZM78.2135 125.181C76.4337 125.181 75.4972 123.823 75.4972 121.24C75.4972 118.657 76.4365 117.33 78.1825 117.33C79.9285 117.33 80.8988 118.688 80.8988 121.305C80.8988 123.922 79.9285 125.181 78.2135 125.181ZM119.392 125.276C117.677 125.276 116.481 124.274 116.255 122.693H127.738C127.738 120.401 127.479 119.012 126.898 117.719C125.507 114.747 122.596 113.035 119.037 113.035C113.957 113.035 110.27 116.491 110.27 121.209C110.27 125.927 113.926 129.479 119.197 129.479C123.273 129.479 126.768 127.282 127.479 124.245H121.592C121.138 124.955 120.427 125.279 119.392 125.279V125.276ZM118.972 117.006C120.492 117.006 121.527 117.944 121.688 119.463H116.287C116.447 117.944 117.482 117.006 118.972 117.006ZM60.0035 119.203C59.9724 119.268 59.8737 119.719 59.7778 120.141C59.6819 120.465 59.5832 120.786 59.5183 121.11C59.4224 121.434 59.3575 121.755 59.2588 122.113C59.2588 122.178 59.194 122.437 59.098 122.792C59.0332 122.567 58.9683 122.308 58.9373 122.113C58.548 120.595 58.4521 120.175 58.1926 119.206L56.5764 113.457H50.1707L55.2507 127.057C55.4115 127.476 55.5102 127.896 55.5102 128.121C55.5102 128.93 54.9291 129.38 53.925 129.38H51.8236V134H56.0941C59.4591 134 60.9145 132.837 62.2713 129.057L67.9633 113.454H61.5576L60.0063 119.203H60.0035ZM41.5339 129.369H47.5842V107.511H41.5339V129.369ZM31.4106 113.035C29.4362 113.035 28.1105 113.694 26.7848 115.339V113.463H21.0589V129.369H27.1092V120.708C27.1092 119.127 27.8538 118.237 29.1795 118.237C30.5052 118.237 31.2188 119.094 31.2188 120.708V129.369H37.2691V119.488C37.2691 117.282 36.7529 115.733 35.588 114.615C34.5218 113.561 33.0974 113.035 31.4163 113.035H31.4106ZM36.4427 45.291C38.561 43.3024 39.8049 43.0911 40.5354 43.0968C42.2645 43.1193 43.3673 44.308 43.5704 44.5446C43.8581 44.8798 44.1515 45.2826 44.851 46.7811C45.181 47.491 45.9539 49.1585 46.3177 54.4174C46.3967 55.5498 46.4249 56.4202 46.4475 57.1159C46.5067 58.8905 46.5377 59.8679 47.3191 61.2228C47.9509 62.3185 49.1807 63.8593 51.4541 64.9663C51.8857 65.1775 53.6542 65.9578 56.001 65.9578C56.1448 65.9578 56.2915 65.955 56.441 65.9465L59.5268 65.9127C60.5591 65.9353 61.71 65.955 62.8015 65.955C64.415 65.955 65.8986 65.9184 66.6827 65.8085C71.5822 65.124 75.1052 62.1298 83.6207 54.8935L83.7617 54.7723C83.9592 54.6033 84.4274 54.209 85.0508 53.6822C85.2341 53.5273 85.4372 53.3583 85.6713 53.164L85.77 53.0823C88.2268 51.0373 91.5918 48.2374 93.8004 46.7051C97.4277 44.1897 100.291 42.201 103.729 42.5024C105.672 42.6743 107.548 43.5362 109.311 45.0713C109.399 46.2234 109.444 47.3867 109.444 48.5613C109.444 73.6561 88.9996 94.0721 63.8706 94.0721C50.261 94.0721 37.4666 88.0667 28.7705 77.5911C28.2318 76.9432 27.2699 76.8531 26.624 77.3911C25.9753 77.9291 25.885 78.8896 26.4238 79.5347C35.7008 90.7089 49.3499 97.117 63.8706 97.117C90.6808 97.117 112.496 75.3349 112.496 48.5585C112.496 43.5249 111.723 38.666 110.293 34.0972C110.27 33.9845 110.233 33.8746 110.185 33.7704C109.342 31.1424 108.279 28.6072 107.021 26.1933C106.97 26.0468 106.897 25.9088 106.804 25.7848C98.618 10.4559 82.4445 0 63.8706 0C37.0576 0 15.2456 21.7822 15.2456 48.5585C15.2456 53.5837 16.01 58.5384 17.5218 63.2818C17.5416 63.3466 17.5698 63.4086 17.598 63.4706C17.6036 63.4847 17.6093 63.4959 17.6177 63.51C17.6572 63.5889 17.7023 63.6621 17.7559 63.7325C17.7616 63.741 17.77 63.7494 17.7757 63.7607C17.8321 63.8339 17.8941 63.9015 17.9647 63.9607C17.9675 63.9635 17.9703 63.9691 17.9759 63.972C17.9788 63.9748 17.9844 63.9776 17.99 63.9804C18.0606 64.0396 18.1339 64.0931 18.2129 64.1381C18.2242 64.1438 18.2354 64.1522 18.2467 64.1579C18.3229 64.2001 18.4019 64.2339 18.4865 64.2621C18.4978 64.2649 18.509 64.2705 18.5203 64.2734C18.6049 64.2987 18.6896 64.3184 18.777 64.3297C18.7855 64.3297 18.7939 64.3297 18.8024 64.3325C18.8898 64.3438 18.9801 64.3438 19.0703 64.341C19.0788 64.341 19.0873 64.341 19.0957 64.341C19.1804 64.3353 19.265 64.3212 19.3496 64.2987C19.3637 64.2959 19.3778 64.2903 19.3919 64.2874C19.4088 64.2818 19.4257 64.279 19.4398 64.2734C19.5047 64.2536 19.5668 64.2255 19.6288 64.1973C19.6429 64.1917 19.6542 64.186 19.6683 64.1776C19.7473 64.1381 19.8206 64.0931 19.8912 64.0396C19.8996 64.0339 19.9081 64.0255 19.9165 64.0198C19.9899 63.9635 20.0576 63.8987 20.1168 63.8311C20.1196 63.8283 20.1253 63.8255 20.1281 63.8199C27.6169 55.2371 33.0664 48.9895 34.9449 46.7699C35.0267 46.6769 35.588 46.091 36.4427 45.2882V45.291ZM107.557 35.5929C108.081 37.3534 108.502 39.1589 108.812 41.0011C107.266 40.1335 105.639 39.6096 103.994 39.4659C99.4529 39.066 95.8594 41.5616 92.0572 44.201C89.7415 45.8093 86.4554 48.5416 83.8153 50.7387L83.7166 50.8204C83.4768 51.0176 83.2709 51.1922 83.0848 51.35C82.4529 51.8795 81.9819 52.2795 81.7816 52.4513L81.6378 52.5724C75.8075 57.5272 72.4566 60.3721 69.5231 61.7777C70.7304 60.8904 71.6894 60.0594 72.3015 59.5271C72.953 58.9609 73.5059 58.4595 74.0362 57.9553C76.7101 55.4005 79.2769 52.6654 81.6632 49.8233C87.2283 43.1954 90.9064 38.8181 96.3643 36.3844C98.4629 35.4492 100.621 34.9309 102.601 34.883C104.271 34.8436 105.932 35.083 107.554 35.5957L107.557 35.5929ZM104.592 28.1425C105.252 29.4466 105.847 30.7874 106.38 32.162C105.108 31.917 103.822 31.8043 102.527 31.8353C100.147 31.8916 97.5857 32.5029 95.1204 33.6014C89.0194 36.3196 84.952 41.1616 79.3249 47.8656C77.0091 50.6232 74.5185 53.2766 71.9263 55.7554C71.4327 56.2286 70.9137 56.6962 70.2988 57.2314C69.2749 58.1215 67.1792 59.9355 64.666 61.2509C64.8127 61.0735 64.9593 60.8988 65.1032 60.7214L65.2217 60.5777C66.7166 58.7609 68.3159 56.9638 69.8644 55.223C71.4327 53.4569 73.0574 51.6316 74.5918 49.7669C77.0401 46.7924 79.0287 44.4967 82.9973 39.9194C85.7531 36.7421 86.9829 35.3844 88.994 33.7422C90.7795 32.2831 92.7991 30.6297 95.8059 29.4579C98.4967 28.4073 101.518 27.9594 104.592 28.1453V28.1425ZM32.6179 44.8009C30.9029 46.8234 26.1981 52.226 19.674 59.7045C18.7601 56.0793 18.2975 52.3415 18.2975 48.5613C18.2975 23.4638 38.7415 3.04776 63.8706 3.04776C80.3939 3.04776 94.8891 11.8756 102.883 25.0553C100.026 25.0947 97.2387 25.6243 94.6973 26.6158C91.2421 27.965 88.9235 29.8579 87.0619 31.3818C84.8759 33.1676 83.5107 34.6718 80.6844 37.9308C76.7073 42.5193 74.7103 44.8235 72.2366 47.829C70.7388 49.6514 69.1339 51.4542 67.5825 53.1978C66.0171 54.9583 64.398 56.7807 62.8664 58.6398L62.748 58.7834C61.2784 60.5693 60.1163 61.9777 58.0883 62.6002C55.3438 63.4424 52.887 62.2734 52.7855 62.2256C51.519 61.6115 50.5684 60.7608 49.9592 59.7045C49.5727 59.0313 49.5474 58.6595 49.4938 57.0173C49.4712 56.2962 49.4402 55.3949 49.3584 54.209C49.003 49.0768 48.2781 46.9248 47.6152 45.4995C46.8339 43.8179 46.4052 43.17 45.889 42.5644C45.3926 41.9841 43.5422 40.0885 40.5749 40.049C38.5553 40.0209 36.5781 40.9842 34.3526 43.0714C33.4584 43.9108 32.7899 44.5981 32.6179 44.8009ZM63.8706 45.1587C70.3355 45.1587 75.5762 39.8603 75.5762 33.3254C75.5762 26.7904 70.3355 21.4921 63.8706 21.4921C57.4057 21.4921 52.1649 26.7904 52.1649 33.3254C52.1649 39.8603 57.4057 45.1587 63.8706 45.1587ZM63.8706 24.537C68.6431 24.537 72.5271 28.4777 72.5271 33.3225C72.5271 38.1674 68.6431 42.1081 63.8706 42.1081C59.098 42.1081 55.214 38.1674 55.214 33.3225C55.214 28.4777 59.098 24.537 63.8706 24.537Z" fill="#10403B"/>
</svg>
