<svg width="54" height="42" viewBox="0 0 54 42" fill="none" xmlns="http://www.w3.org/2000/svg">
<path d="M48.6703 24.4C50.4003 24.4 51.8103 22.99 51.8103 21.26C51.8103 19.53 50.4003 18.12 48.6703 18.12C46.9403 18.12 45.5303 19.53 45.5303 21.26C45.5303 22.99 46.9403 24.4 48.6703 24.4Z" fill="#10403B"/>
<path d="M46.6001 16.32C46.3401 15.53 46.0101 14.76 45.6101 14.02C42.4401 8.13002 35.0301 4.01002 26.3901 4.01002C22.8901 4.01002 19.6001 4.70002 16.7001 5.90002C15.7201 3.62002 13.4501 2.02002 10.8001 2.02002C8.63014 2.02002 6.71014 3.10002 5.55014 4.75002L9.73014 10.57C8.72014 11.62 7.86014 12.77 7.19014 14H4.63014C3.39014 14 2.39014 14.9 2.39014 16.02V24.86C2.39014 25.97 3.39014 26.88 4.63014 26.88H7.22014C8.10014 28.48 9.27014 29.96 10.7201 31.26L10.0301 37.78C9.98014 38.29 10.2601 38.76 10.7001 38.89L13.8201 39.83C14.3301 39.98 14.8701 39.72 15.1101 39.18L16.9701 35.08C19.8001 36.21 22.9901 36.86 26.3801 36.86C30.0101 36.86 33.4201 36.13 36.4001 34.85L38.1501 38.72C38.3901 39.25 38.9301 39.52 39.4401 39.37L42.5601 38.43C43.0001 38.3 43.2901 37.82 43.2301 37.32L42.5501 30.82C45.1901 28.27 46.8901 25.09 47.1901 21.6" stroke="#10403B" stroke-width="3" stroke-linecap="round" stroke-linejoin="round"/>
<path d="M20.4399 11.5199C20.4399 11.5199 24.0599 10.3999 29.3999 11.0799C35.5499 11.8599 37.7899 13.6999 37.7899 13.6999" stroke="#10403B" stroke-width="3" stroke-linecap="round" stroke-linejoin="round"/>
<path d="M12.7899 20.51C14.1099 20.51 15.1799 19.4399 15.1799 18.12C15.1799 16.8 14.1099 15.73 12.7899 15.73C11.4699 15.73 10.3999 16.8 10.3999 18.12C10.3999 19.4399 11.4699 20.51 12.7899 20.51Z" fill="#10403B"/>
<path d="M50.8102 17.22C51.8102 18.22 51.8102 19.83 50.8102 20.83C49.8102 21.83 48.2002 21.83 47.2002 20.83" stroke="#10403B" stroke-width="3" stroke-linecap="round" stroke-linejoin="round"/>
<path d="M29.1101 12.28C32.4101 12.28 35.0801 9.60997 35.0801 6.30997C35.0801 3.00997 32.4101 0.339966 29.1101 0.339966C25.8101 0.339966 23.1401 3.00997 23.1401 6.30997C23.1401 9.60997 25.8101 12.28 29.1101 12.28Z" fill="#FAAA42"/>
</svg>
