<svg width="65" height="65" viewBox="0 0 65 65" fill="none" xmlns="http://www.w3.org/2000/svg">
<path d="M16.3 9.11018L21.28 5.27018C22.82 4.08018 25.04 4.37018 26.23 5.91018L33.5 15.3502C34.69 16.8902 34.4 19.1102 32.86 20.3002L15.3 33.8302C13.76 35.0202 11.54 34.7302 10.35 33.1902L3.07999 23.7502C1.88999 22.2102 2.17999 19.9902 3.71999 18.8002L12.73 11.8602" stroke="#10403B" stroke-width="3" stroke-miterlimit="10" stroke-linecap="round"/>
<path d="M33.4 14.9102H46.86C48.34 14.9102 49.55 16.1102 49.55 17.6002V22.2102C49.55 23.6902 48.35 24.9002 46.86 24.9002H30.64C29.76 24.9002 28.99 24.4802 28.5 23.8302" stroke="#10403B" stroke-width="0.5" stroke-miterlimit="10" stroke-linecap="round"/>
<path d="M25.29 26.8802C25.56 27.3002 25.7 27.7802 25.7 28.2802V50.9202C25.7 51.2402 25.74 51.5602 25.83 51.8702C26.25 53.3502 27.6 54.3602 29.14 54.3602H49.1401C50.6801 54.3602 52.0301 53.3402 52.4501 51.8702C52.5401 51.5602 52.58 51.2402 52.58 50.9202V28.2902C52.58 27.6202 52.84 26.9802 53.3 26.5002L56.1401 23.5402C56.5001 23.1602 56.7001 22.6602 56.7001 22.1402V12.8702C56.7001 12.0902 56.07 11.4502 55.28 11.4502H30.65" stroke="#10403B" stroke-width="3" stroke-miterlimit="10" stroke-linecap="round"/>
<path d="M34.3502 32.1001H30.6702C30.2504 32.1001 29.9102 32.4404 29.9102 32.8601V33.6101C29.9102 34.0298 30.2504 34.3701 30.6702 34.3701H34.3502C34.7699 34.3701 35.1101 34.0298 35.1101 33.6101V32.8601C35.1101 32.4404 34.7699 32.1001 34.3502 32.1001Z" fill="#10403B"/>
<path d="M34.3502 35.9702H30.6702C30.2504 35.9702 29.9102 36.3105 29.9102 36.7302V37.4802C29.9102 37.8999 30.2504 38.2402 30.6702 38.2402H34.3502C34.7699 38.2402 35.1101 37.8999 35.1101 37.4802V36.7302C35.1101 36.3105 34.7699 35.9702 34.3502 35.9702Z" fill="#10403B"/>
<path d="M34.3502 39.8301H30.6702C30.2504 39.8301 29.9102 40.1703 29.9102 40.5901V41.3401C29.9102 41.7598 30.2504 42.1001 30.6702 42.1001H34.3502C34.7699 42.1001 35.1101 41.7598 35.1101 41.3401V40.5901C35.1101 40.1703 34.7699 39.8301 34.3502 39.8301Z" fill="#10403B"/>
<path d="M40.5904 32.1001H36.9104C36.4907 32.1001 36.1504 32.4404 36.1504 32.8601V33.6101C36.1504 34.0298 36.4907 34.3701 36.9104 34.3701H40.5904C41.0101 34.3701 41.3504 34.0298 41.3504 33.6101V32.8601C41.3504 32.4404 41.0101 32.1001 40.5904 32.1001Z" fill="#10403B"/>
<path d="M40.5904 35.9702H36.9104C36.4907 35.9702 36.1504 36.3105 36.1504 36.7302V37.4802C36.1504 37.8999 36.4907 38.2402 36.9104 38.2402H40.5904C41.0101 38.2402 41.3504 37.8999 41.3504 37.4802V36.7302C41.3504 36.3105 41.0101 35.9702 40.5904 35.9702Z" fill="#10403B"/>
<path d="M40.5904 39.8301H36.9104C36.4907 39.8301 36.1504 40.1703 36.1504 40.5901V41.3401C36.1504 41.7598 36.4907 42.1001 36.9104 42.1001H40.5904C41.0101 42.1001 41.3504 41.7598 41.3504 41.3401V40.5901C41.3504 40.1703 41.0101 39.8301 40.5904 39.8301Z" fill="#10403B"/>
<path d="M46.8306 32.1001H43.1506C42.7309 32.1001 42.3906 32.4404 42.3906 32.8601V33.6101C42.3906 34.0298 42.7309 34.3701 43.1506 34.3701H46.8306C47.2503 34.3701 47.5906 34.0298 47.5906 33.6101V32.8601C47.5906 32.4404 47.2503 32.1001 46.8306 32.1001Z" fill="#10403B"/>
<path d="M46.8306 35.9702H43.1506C42.7309 35.9702 42.3906 36.3105 42.3906 36.7302V37.4802C42.3906 37.8999 42.7309 38.2402 43.1506 38.2402H46.8306C47.2503 38.2402 47.5906 37.8999 47.5906 37.4802V36.7302C47.5906 36.3105 47.2503 35.9702 46.8306 35.9702Z" fill="#10403B"/>
<path d="M46.8306 39.8301H43.1506C42.7309 39.8301 42.3906 40.1703 42.3906 40.5901V41.3401C42.3906 41.7598 42.7309 42.1001 43.1506 42.1001H46.8306C47.2503 42.1001 47.5906 41.7598 47.5906 41.3401V40.5901C47.5906 40.1703 47.2503 39.8301 46.8306 39.8301Z" fill="#10403B"/>
<path d="M11.0098 22.8101C12.2598 23.2401 13.0998 24.4201 13.0898 25.7401" stroke="#10403B" stroke-width="0.75" stroke-linecap="round" stroke-linejoin="round"/>
<path d="M11.9199 21.2302C13.6999 21.8402 14.8899 23.5202 14.8799 25.4102" stroke="#10403B" stroke-width="0.75" stroke-linecap="round" stroke-linejoin="round"/>
<path d="M12.8398 19.5701C15.1898 20.3801 16.7698 22.6001 16.7498 25.0901" stroke="#10403B" stroke-width="0.75" stroke-linecap="round" stroke-linejoin="round"/>
<path d="M13.7793 17.77C16.7793 18.8 18.7793 21.63 18.7493 24.8" stroke="#10403B" stroke-width="0.75" stroke-linecap="round" stroke-linejoin="round"/>
<path d="M15 15.8901C18.28 17.3201 20.68 20.7001 20.94 24.2801" stroke="#10403B" stroke-width="0.75" stroke-linecap="round" stroke-linejoin="round"/>
<path d="M38.7802 50.2401C39.9289 50.2401 40.8602 49.3088 40.8602 48.1601C40.8602 47.0113 39.9289 46.0801 38.7802 46.0801C37.6314 46.0801 36.7002 47.0113 36.7002 48.1601C36.7002 49.3088 37.6314 50.2401 38.7802 50.2401Z" fill="#FAAA42"/>
</svg>
