<svg width="51" height="46" viewBox="0 0 51 46" fill="none" xmlns="http://www.w3.org/2000/svg">
<g clip-path="url(#clip0_275_93)">
<path d="M33.48 37.69H4.78C2.97 37.69 1.5 36.22 1.5 34.41V4.78C1.5 2.97 2.97 1.5 4.78 1.5H45.46C47.27 1.5 48.74 2.97 48.74 4.78V33.38" stroke="#10403B" stroke-width="3" stroke-miterlimit="10" stroke-linecap="round"/>
<path d="M30 31.1655L36.2001 37.1655C36.4701 37.4655 36.4501 37.9255 36.1501 38.1855L30 43.6655" stroke="#10403B" stroke-width="3" stroke-miterlimit="10" stroke-linecap="round"/>
<path d="M18.9101 18.01H17.1401V16.67H19.1801C20.1201 13.52 22.8801 11.46 26.2701 11.46C29.4601 11.46 32.0201 13.08 33.1001 15.95H30.8001C29.9901 14.23 28.4401 13.23 26.2701 13.23C23.9101 13.23 22.0101 14.51 21.2501 16.68H26.2701V18.02H20.9101C20.8701 18.36 20.8501 18.7 20.8501 19.06C20.8501 19.44 20.8701 19.81 20.9401 20.17H26.2801V21.53H21.2801C22.1101 23.64 23.9801 24.87 26.2801 24.87C28.4501 24.87 30.0001 23.87 30.8101 22.17H33.1101C32.0201 25.02 29.4701 26.62 26.2801 26.62C23.0901 26.62 20.1701 24.62 19.2101 21.53H17.1501V20.17H18.9201C18.8801 19.81 18.8601 19.45 18.8601 19.06C18.8601 18.7 18.8801 18.36 18.9201 18.02L18.9101 18.01Z" fill="#10403B"/>
<path d="M42.7298 40.0801C44.0498 40.0801 45.1198 39.01 45.1198 37.69C45.1198 36.3701 44.0498 35.3 42.7298 35.3C41.4099 35.3 40.3398 36.3701 40.3398 37.69C40.3398 39.01 41.4099 40.0801 42.7298 40.0801Z" fill="#FAAA42"/>
</g>
<defs>
<clipPath id="clip0_275_93">
<rect width="50.25" height="45.94" fill="white"/>
</clipPath>
</defs>
</svg>
