<svg width="61" height="61" viewBox="0 0 61 61" fill="none" xmlns="http://www.w3.org/2000/svg">
<path d="M30.5 1.82275C46.3455 1.82275 59.1773 14.6668 59.1773 30.5C59.1773 46.3333 46.3333 59.1773 30.5 59.1773C14.6668 59.1773 1.82275 46.3455 1.82275 30.5C1.82275 17.1214 10.9849 5.88132 23.3915 2.70981" stroke="#10403B" stroke-width="3" stroke-miterlimit="10" stroke-linecap="round"/>
<path d="M14.7031 7.24219C16.4772 8.22645 18.6523 7.7647 20.6695 7.49737C22.6866 7.23004 25.0804 7.388 26.2226 9.0649C27.1826 10.4988 26.8181 12.4551 27.535 14.0227C27.9967 15.0191 28.8838 15.8332 29.0782 16.9147C29.3334 18.3121 28.2398 19.7095 26.891 20.1713C25.5422 20.633 24.0475 20.3535 22.723 19.831C22.2491 19.6488 21.7752 19.43 21.277 19.4179C19.673 19.3814 18.7738 21.4472 19.1991 22.9904C19.4057 23.7438 19.831 24.4729 19.8189 25.2506C19.7946 26.9153 18.0083 27.8753 16.9511 29.1633C15.5294 30.9131 15.493 33.55 16.5744 35.5185C17.6559 37.487 19.6973 38.8237 21.8846 39.3948C24.0718 39.9659 26.3685 39.8444 28.5922 39.4191C29.5157 39.249 30.4635 39.0181 31.3991 39.1761C33.5378 39.5284 34.8987 41.8372 34.9838 44.0002C35.0689 46.1631 34.1818 48.241 33.392 50.2581C32.6021 52.2753 31.873 54.4504 32.274 56.5768" stroke="#10403B" stroke-width="3" stroke-miterlimit="10" stroke-linecap="round"/>
<path d="M3.06201 25.3237C4.79966 26.7333 6.02695 28.7626 6.4644 30.9498C6.73173 32.2743 6.71958 33.6717 7.26639 34.9112C8.23851 37.1227 10.6809 38.2407 12.8682 39.2614C15.0554 40.2821 17.4371 41.6795 18.0082 44.0247C18.2999 45.2399 18.0568 46.5158 18.2756 47.7431C18.8831 51.1454 22.7837 53.2233 23.367 56.6379" stroke="#10403B" stroke-width="3" stroke-miterlimit="10" stroke-linecap="round"/>
<path d="M40.6221 26.4659C39.8444 27.0613 39.1639 27.7782 38.6171 28.5924C38.2768 29.1149 37.9731 29.6981 37.9852 30.3179C37.9974 30.9011 38.2768 31.4358 38.5442 31.9583C39.2247 33.3436 39.7715 34.7896 40.1725 36.272C40.5006 37.475 40.7314 38.7145 40.6464 39.9661C40.5735 41.0475 40.2697 42.1047 40.0874 43.174C39.8808 44.4256 39.8444 45.7137 40.0023 46.9774C40.1117 47.8888 40.4276 48.9338 41.2904 49.2619C41.8494 49.4806 42.4934 49.3469 43.0402 49.0918C45.2639 48.0589 46.3454 47.269 47.1595 45.6165C47.9615 43.9882 47.9372 42.0926 48.3017 40.3063C48.6541 38.52 49.4075 36.831 49.8936 35.0812C50.3796 33.3314 50.6105 31.4115 49.93 29.7103C49.3832 28.3493 48.3018 27.2679 47.0745 26.4659C46.3332 25.9798 45.5191 25.591 44.6442 25.4451C42.943 25.1657 42.3597 25.1778 40.6464 26.4416L40.6221 26.4659Z" stroke="#FAAA42" stroke-width="2" stroke-miterlimit="10" stroke-linecap="round"/>
<path d="M39.0425 20.9246C39.808 22.1519 40.0996 22.6137 39.6257 23.9868C39.3098 24.9103 38.5321 25.4206 37.6815 25.8945C37.0618 26.2469 36.3084 26.3442 35.6522 26.0647C34.668 25.6272 34.5221 24.7037 34.4371 23.8288C34.3034 22.5772 34.2548 21.2284 34.8867 20.1348C35.5186 19.0412 37.0618 18.5187 38.1433 19.7095L39.0303 20.9368L39.0425 20.9246Z" fill="#FAAA42"/>
<path d="M41.91 23.3672C43.0442 23.3672 43.9636 22.0071 43.9636 20.3294C43.9636 18.6516 43.0442 17.2915 41.91 17.2915C40.7759 17.2915 39.8564 18.6516 39.8564 20.3294C39.8564 22.0071 40.7759 23.3672 41.91 23.3672Z" fill="#FAAA42"/>
<path d="M47.6973 21.5075C47.9769 20.1536 47.5003 18.9108 46.6328 18.7316C45.7653 18.5524 44.8353 19.5047 44.5556 20.8586C44.276 22.2125 44.7526 23.4553 45.6201 23.6345C46.4877 23.8137 47.4177 22.8614 47.6973 21.5075Z" fill="#FAAA42"/>
<path d="M50.9683 23.114C51.3921 22.0475 51.1845 20.964 50.5047 20.6939C49.8249 20.4238 48.9303 21.0694 48.5065 22.1359C48.0828 23.2023 48.2903 24.2859 48.9702 24.556C49.65 24.8261 50.5446 24.1805 50.9683 23.114Z" fill="#FAAA42"/>
<path d="M52.5306 26.1864C51.6314 28.1792 49.6385 27.2557 50.5742 25.2872C51.4734 23.2944 53.4662 24.2179 52.5306 26.1864Z" fill="#FAAA42"/>
</svg>
