<svg width="61" height="52" viewBox="0 0 61 52" fill="none" xmlns="http://www.w3.org/2000/svg">
<g clip-path="url(#clip0_303_572)">
<path d="M39.0653 39.7923H38.5653V40.2923V47.5845C38.5653 49.4266 37.0777 50.9053 35.2678 50.9053H26.4142C24.6043 50.9053 23.1168 49.4266 23.1168 47.5845V40.2923V39.7923H22.6168C21.5683 39.7923 20.5762 39.5024 19.8586 38.9502C19.1558 38.4093 18.6899 37.5995 18.6899 36.4716V29.8039C18.6899 23.0612 24.1535 17.5928 30.841 17.5928C37.5286 17.5928 42.9921 23.0612 42.9921 29.8039V36.4716C42.9921 37.5937 42.5266 38.404 41.823 38.9465C41.1051 39.5002 40.1128 39.7923 39.0653 39.7923Z" fill="#FAAA42" stroke="#FAAA42"/>
<path fill-rule="evenodd" clip-rule="evenodd" d="M23.9805 6.93235C23.9805 3.10104 27.0541 0 30.8515 0C34.6489 0 37.7225 3.10104 37.7225 6.93235C37.7225 10.7637 34.6489 13.8647 30.8515 13.8647C27.0541 13.8647 23.9805 10.7637 23.9805 6.93235Z" fill="#FAAA42"/>
<path fill-rule="evenodd" clip-rule="evenodd" d="M41.394 6.78418C41.394 3.03753 44.4047 0 48.1182 0C51.8317 0 54.8424 3.03753 54.8424 6.78418C54.8424 10.5308 51.8317 13.5684 48.1182 13.5684C44.4047 13.5684 41.394 10.5308 41.394 6.78418ZM48.1182 2.39193C45.716 2.39193 43.7648 4.3605 43.7648 6.78418C43.7648 9.20786 45.716 11.1764 48.1182 11.1764C50.5204 11.1764 52.4716 9.20786 52.4716 6.78418C52.4716 4.3605 50.5204 2.39193 48.1182 2.39193Z" fill="#10403B"/>
<path d="M55.6396 20.4268C57.9684 22.8293 59.4265 26.3325 59.4265 30.2379V36.1225H36.7993V30.2379C36.7993 22.9881 41.866 17.1035 48.1077 17.1035C49.6602 17.1035 51.1498 17.4634 52.4925 18.1301" stroke="#10403B" stroke-width="3" stroke-linecap="round" stroke-linejoin="round"/>
<path d="M52.8387 36.1226H43.3976C42.6039 36.1226 41.9604 36.7717 41.9604 37.5725V48.3362C41.9604 49.137 42.6039 49.7862 43.3976 49.7862H52.8387C53.6324 49.7862 54.2758 49.137 54.2758 48.3362V37.5725C54.2758 36.7717 53.6324 36.1226 52.8387 36.1226Z" stroke="#10403B" stroke-width="3" stroke-linecap="round" stroke-linejoin="round"/>
<path fill-rule="evenodd" clip-rule="evenodd" d="M6.46191 7.17578C6.46191 3.21746 9.64042 0 13.5742 0C17.508 0 20.6865 3.21746 20.6865 7.17578C20.6865 11.1341 17.4975 14.3516 13.5742 14.3516C9.65091 14.3516 6.46191 11.1341 6.46191 7.17578ZM13.5742 2.39193C10.9517 2.39193 8.83268 4.54043 8.83268 7.17578C8.83268 9.81113 10.9622 11.9596 13.5742 11.9596C16.1862 11.9596 18.3157 9.82171 18.3157 7.17578C18.3157 4.52984 16.1967 2.39193 13.5742 2.39193Z" fill="#10403B"/>
<path d="M20.1622 20.9029C21.3266 24.5543 22.0819 26.9145 23.4771 32.1111L25.5751 38.8424H1.57373L3.67175 32.1111C7.0181 22.6281 8.10907 17.0928 13.5744 17.0928C14.7283 17.0928 15.8403 17.3891 16.8683 17.9395" stroke="#10403B" stroke-width="3" stroke-linecap="round" stroke-linejoin="round"/>
<path d="M20.5924 38.8423L18.8091 48.5052C18.8091 49.2673 18.2846 49.8917 17.6447 49.8917H9.50436C8.86447 49.8917 8.33996 49.2673 8.33996 48.5052L6.55664 38.8423" stroke="#10403B" stroke-width="3" stroke-linecap="round" stroke-linejoin="round"/>
</g>
<defs>
<clipPath id="clip0_303_572">
<rect width="61" height="51.4688" fill="white"/>
</clipPath>
</defs>
</svg>
