<svg width="57" height="52" viewBox="0 0 57 52" fill="none" xmlns="http://www.w3.org/2000/svg">
<path d="M11.3738 4.0374C13.8447 2.72228 16.6685 1.97266 19.6623 1.97266C29.4412 1.97266 37.3637 9.94231 37.3637 19.7794C37.3637 29.6166 29.4412 37.5862 19.6623 37.5862C9.88341 37.5862 1.96094 29.6166 1.96094 19.7794C1.96094 15.6631 3.34672 11.8624 5.68685 8.85075" stroke="#10403B" stroke-width="3" stroke-miterlimit="10" stroke-linecap="round"/>
<path d="M34.0171 31.6812L55.0391 50.0271" stroke="#10403B" stroke-width="3" stroke-miterlimit="10" stroke-linecap="round"/>
<path d="M12.5 25C15.5376 25 18 22.5376 18 19.5C18 16.4624 15.5376 14 12.5 14C9.46243 14 7 16.4624 7 19.5C7 22.5376 9.46243 25 12.5 25Z" fill="#FAAA42"/>
</svg>
