<svg width="58" height="44" viewBox="0 0 58 44" fill="none" xmlns="http://www.w3.org/2000/svg">
<path id="twitter [#154]" fill-rule="evenodd" clip-rule="evenodd" d="M52.1099 12.39C52.1099 11.9081 52.1099 11.4289 52.0763 10.9523C54.3231 9.38199 56.2622 7.4326 57.8039 5.20162C55.711 6.10051 53.4865 6.69075 51.2117 6.95066C53.6068 5.56172 55.4004 3.37948 56.2594 0.804656C54.0042 2.09884 51.5391 3.01126 48.9677 3.50132C44.6195 -0.971459 37.3473 -1.18806 32.7221 3.01939C29.7422 5.73229 28.4747 9.77729 29.4008 13.6355C20.17 13.186 11.5688 8.96775 5.73767 2.02844C2.69058 7.10499 4.2491 13.5976 9.294 16.8574C7.46687 16.8059 5.67891 16.3294 4.08122 15.4684V15.6092C4.08402 20.897 7.93694 25.451 13.2924 26.4988C11.6024 26.9455 9.82843 27.0105 8.11042 26.6883C9.61298 31.2152 13.9248 34.3153 18.8354 34.4046C14.7698 37.4966 9.74728 39.1753 4.57648 39.1698C3.66431 39.1671 2.75214 39.1157 1.84277 39.0101C7.09473 42.2699 13.2029 44 19.4426 43.9919C40.5595 44 52.1099 27.07 52.1099 12.39Z" fill="#10403B"/>
</svg>
