<svg width="51" height="46" viewBox="0 0 51 46" fill="none" xmlns="http://www.w3.org/2000/svg">
<path d="M33.97 37.0683H5.28C3.47 37.0683 2 35.6443 2 33.8908V5.17746C2 3.42404 3.47 2 5.28 2H45.96C47.77 2 49.24 3.42404 49.24 5.17746V32.8834" stroke="#10403B" stroke-width="3" stroke-miterlimit="10" stroke-linecap="round"/>
<path d="M30.7798 30.5294L36.6898 36.8746C36.9598 37.1653 36.9398 37.6109 36.6398 37.8628L30.0898 43.588" stroke="#10403B" stroke-width="3" stroke-miterlimit="10" stroke-linecap="round"/>
<path d="M43.2201 39.3835C44.54 39.3835 45.6101 38.3469 45.6101 37.0682C45.6101 35.7895 44.54 34.7529 43.2201 34.7529C41.9001 34.7529 40.8301 35.7895 40.8301 37.0682C40.8301 38.3469 41.9001 39.3835 43.2201 39.3835Z" fill="#FAAA42"/>
<path d="M13.63 24.0291C11.6 24.0291 10.03 23.0022 10 21.2101H12.1C12.16 21.9657 12.67 22.4694 13.58 22.4694C14.49 22.4694 15.05 21.9947 15.05 21.3166C15.05 19.2629 10.01 20.5029 10.02 17.0736C10.02 15.3589 11.45 14.332 13.47 14.332C15.49 14.332 16.85 15.3201 16.97 17.0348H14.81C14.77 16.4148 14.25 15.9208 13.41 15.9111C12.64 15.882 12.07 16.2501 12.07 17.0251C12.07 18.9238 17.08 17.8679 17.08 21.2004C17.08 22.6922 15.85 24.0388 13.62 24.0388L13.63 24.0291Z" fill="#10403B"/>
<path d="M24.4298 15.9982H20.7198V18.3716H24.0098V19.8732H20.7198V22.3822H24.4298V23.9322H18.7598V14.4482H24.4298V15.9982Z" fill="#10403B"/>
<path d="M29.81 20.2995H28.17V23.9323H26.21V14.458H29.81C32.16 14.458 33.34 15.7464 33.34 17.3933C33.34 18.827 32.33 20.2995 29.81 20.2995ZM29.73 18.7689C30.84 18.7689 31.33 18.2361 31.33 17.403C31.33 16.5699 30.84 16.0177 29.73 16.0177H28.18V18.7689H29.73Z" fill="#10403B"/>
<path d="M39.7702 22.1303H35.8802L35.2402 23.9322H33.1802L36.7002 14.4482H38.9802L42.5002 23.9322H40.4302L39.7902 22.1303H39.7702ZM37.8202 16.6473L36.4102 20.6094H39.2402L37.8202 16.6473Z" fill="#10403B"/>
</svg>
